<svg
    xmlns="http://www.w3.org/2000/svg"
    viewBox="0 0 512 512"
    id="vector">
    <path
        id="path_16"
        d="M 481.54 356.126 L 466.918 357.476 C 439.384 360.036 379.204 372.918 368.953 396.362 C 366.683 401.553 364.382 407.384 361.952 413.565 C 353.871 434.108 344.709 457.392 329.317 476.535 C 318.125 490.457 304.923 500.319 289.851 506.04 C 279.439 510.01 268.147 512 256.005 512 L 255.995 512 C 243.853 512 232.551 510.01 222.14 506.039 C 207.068 500.318 193.866 490.457 182.674 476.534 C 167.282 457.391 158.12 434.107 150.039 413.574 C 147.609 407.393 145.308 401.552 143.038 396.361 C 132.786 372.917 72.607 360.035 45.063 357.475 L 30.461 356.115 L 31.491 341.473 C 32.651 325.05 34.621 309.208 37.412 293.976 C 44.363 255.86 56.355 221.575 73.258 191.62 C 74.228 189.91 75.208 188.199 76.208 186.519 C 76.208 186.519 76.208 186.509 76.218 186.509 C 13.517 128.87 40.601 23.744 41.842 19.123 L 46.932 0 L 189.824 84.443 L 189.334 85.263 L 189.344 85.263 C 210.757 76.962 233.381 72.811 255.994 72.811 L 256.004 72.811 C 278.618 72.811 301.231 76.962 322.644 85.263 L 322.654 85.263 L 322.164 84.443 L 465.058 0 L 470.149 19.123 C 471.389 23.744 498.473 128.87 435.774 186.509 C 435.784 186.509 435.784 186.519 435.784 186.519 C 436.784 188.199 437.764 189.91 438.734 191.62 C 455.517 221.365 467.469 255.38 474.43 293.176 C 477.3 308.658 479.321 324.761 480.501 341.474 L 481.54 356.126 Z"
        fill="#ff7a53"/>
    <path
        id="path_17"
        d="M 481.54 356.126 L 466.918 357.476 C 439.384 360.036 379.204 372.918 368.953 396.362 C 366.683 401.553 364.382 407.384 361.952 413.565 C 353.871 434.108 344.709 457.392 329.317 476.535 C 318.125 490.457 304.923 500.319 289.851 506.04 C 279.439 510.01 268.147 512 256.005 512 L 256.005 72.811 C 278.619 72.811 301.232 76.962 322.645 85.263 L 322.655 85.263 L 322.165 84.443 L 465.058 0 L 470.149 19.123 C 471.389 23.744 498.473 128.87 435.774 186.509 C 435.784 186.509 435.784 186.519 435.784 186.519 C 436.784 188.199 437.764 189.91 438.734 191.62 C 455.517 221.365 467.469 255.38 474.43 293.176 C 477.3 308.658 479.321 324.761 480.501 341.474 L 481.54 356.126 Z"
        fill="#ff4f19"/>
    <path
        id="path_18"
        d="M 315.111 302.964 L 293.853 281.79 L 328.458 247.047 L 349.716 268.221 Z"
        fill="#3a3a41"/>
    <path
        id="path_19"
        d="M 196.388 302.958 L 161.783 268.215 L 183.041 247.041 L 217.646 281.784 Z"
        fill="#57555c"/>
    <path
        id="path_20"
        d="M 481.54 356.126 L 466.918 357.476 C 439.384 360.036 379.204 372.918 368.953 396.362 C 366.683 401.553 364.382 407.384 361.952 413.565 C 353.871 434.108 344.709 457.392 329.317 476.535 C 310.393 500.068 285.74 512 256.005 512 L 255.995 512 C 226.26 512 201.597 500.068 182.674 476.534 C 167.282 457.391 158.12 434.107 150.039 413.574 C 147.609 407.393 145.308 401.552 143.038 396.361 C 132.786 372.917 72.607 360.035 45.063 357.475 L 30.461 356.115 L 31.491 341.473 C 32.651 325.05 34.621 309.208 37.412 293.976 C 41.653 294.556 46.643 295.326 52.204 296.356 C 56.735 297.196 61.655 298.196 66.866 299.406 C 122.865 312.408 212.469 348.784 222.14 449.049 L 289.851 449.049 C 299.833 345.553 391.517 310.127 444.905 298.215 C 450.226 297.035 455.157 296.085 459.597 295.325 C 465.518 294.305 470.559 293.625 474.429 293.175 C 477.299 308.657 479.32 324.76 480.5 341.473 L 481.54 356.126 Z"
        fill="#ffd8a6"/>
    <path
        id="path_21"
        d="M 481.54 356.126 L 466.918 357.476 C 439.384 360.036 379.204 372.918 368.953 396.362 C 366.683 401.553 364.382 407.384 361.952 413.565 C 353.871 434.108 344.709 457.392 329.317 476.535 C 310.393 500.068 285.74 512 256.005 512 L 256.005 449.05 L 289.85 449.05 C 299.832 345.554 391.516 310.128 444.904 298.216 C 450.225 297.036 455.156 296.086 459.596 295.326 C 465.517 294.306 470.558 293.626 474.428 293.176 C 477.298 308.658 479.319 324.761 480.499 341.474 L 481.54 356.126 Z"
        fill="#ffc173"/>
    <path
        id="path_22"
        d="M 289.85 447.37 L 289.85 506.039 C 279.439 510.01 268.147 512 256.005 512 L 255.995 512 C 243.853 512 232.551 510.01 222.14 506.039 L 222.14 447.37 L 289.85 447.37 Z"
        fill="#57555c"/>
    <path
        id="path_23"
        d="M 289.85 447.37 L 289.85 506.039 C 279.439 510.01 268.147 512 256.005 512 L 256.005 447.37 L 289.85 447.37 Z"
        fill="#3a3a41"/>
</svg>
