<svg
    xmlns="http://www.w3.org/2000/svg"
    viewBox="0 0 511 511"
    id="vector">
    <path
        id="path_50"
        d="M 74.712 186.409 L 36.518 493.176 C 35.777 499.142 40.43 504.408 46.442 504.408 L 92.315 504.408 L 123.223 494.408 L 160.457 504.408 L 351.457 504.408 L 382.627 494.408 L 419.599 504.408 L 465.472 504.408 C 471.484 504.408 476.137 499.142 475.396 493.176 L 437.777 186.408 L 74.712 186.408 Z"
        fill="#dc4955"/>
    <path
        id="path_51"
        d="M 437.776 186.409 L 380.106 186.409 L 311.966 186.409 L 263.456 186.409 L 248.456 186.409 L 199.946 186.409 L 131.806 186.409 L 123.286 186.409 L 83.286 186.409 L 74.716 186.409 L 62.716 282.769 C 63.516 282.809 64.316 282.829 65.126 282.829 C 79.716 282.829 93.066 277.429 103.296 268.519 C 108.296 272.889 114.046 276.399 120.326 278.859 C 126.876 281.419 134.006 282.829 141.456 282.829 C 156.046 282.829 169.396 277.429 179.626 268.519 C 182.496 271.019 185.606 273.239 188.926 275.149 C 197.436 280.039 207.296 282.829 217.786 282.829 C 229.036 282.829 239.556 279.619 248.456 274.059 C 251.106 272.419 253.616 270.559 255.956 268.519 C 258.296 270.559 260.806 272.419 263.456 274.059 C 272.356 279.619 282.876 282.829 294.126 282.829 C 304.616 282.829 314.476 280.039 322.986 275.149 C 326.306 273.239 329.416 271.019 332.286 268.519 C 342.516 277.429 355.866 282.829 370.456 282.829 C 377.906 282.829 385.036 281.419 391.586 278.859 C 397.866 276.399 403.626 272.869 408.626 268.519 C 418.846 277.429 432.196 282.829 446.786 282.829 C 447.726 282.829 448.666 282.809 449.596 282.759 Z"
        fill="#d82f3c"/>
    <path
        id="path_52"
        d="M 131.806 186.409 L 199.946 186.409 L 188.926 275.149 C 185.606 273.239 182.496 271.019 179.626 268.519 C 169.396 277.429 156.046 282.829 141.456 282.829 C 134.006 282.829 126.876 281.419 120.326 278.859 Z"
        fill="#d82f3c"/>
    <path
        id="path_53"
        d="M 248.456 186.409 L 263.456 186.409 L 263.456 274.059 C 260.806 272.419 258.296 270.559 255.956 268.519 C 253.616 270.559 251.106 272.419 248.456 274.059 Z"
        fill="#d82f3c"/>
    <path
        id="path_54"
        d="M 391.586 278.859 C 385.036 281.419 377.906 282.829 370.456 282.829 C 355.866 282.829 342.516 277.429 332.286 268.519 C 329.416 271.019 326.306 273.239 322.986 275.149 L 311.966 186.409 L 380.106 186.409 L 389.596 262.829 Z"
        fill="#d82f3c"/>
    <path
        id="path_55"
        d="M 332.286 504.409 L 179.626 504.409 C 180.476 503.349 181.326 502.289 182.166 501.229 C 225.416 446.489 248.456 378.499 248.456 308.729 L 248.456 186.409 L 263.456 186.409 L 263.456 308.729 C 263.456 378.479 286.486 446.469 329.726 501.199 C 330.576 502.269 331.426 503.339 332.286 504.409 Z"
        fill="#365f7e"/>
    <path
        id="path_56"
        d="M 263.456 186.409 L 263.456 297.929 C 263.456 367.699 245.416 446.489 202.166 501.229 C 201.326 502.289 200.476 503.349 199.626 504.409 L 179.626 504.409 C 180.476 503.349 181.326 502.289 182.166 501.229 C 225.416 446.489 248.456 378.499 248.456 308.729 L 248.456 186.409 Z"
        fill="#2c4d66"/>
    <path
        id="path_57"
        d="M 199.946 186.409 L 160.456 504.409 L 92.316 504.409 L 131.806 186.409 Z"
        fill="#efedef"/>
    <path
        id="path_58"
        d="M 419.596 504.409 L 351.456 504.409 L 311.966 186.409 L 380.106 186.409 L 389.596 262.829 Z"
        fill="#efedef"/>
    <path
        id="path_59"
        d="M 263.456 186.409 L 263.456 274.059 C 260.806 272.419 258.296 270.559 255.956 268.519 C 253.616 270.559 251.106 272.419 248.456 274.059 L 248.456 186.409 Z"
        fill="#2c4d66"/>
    <path
        id="path_60"
        d="M 199.946 186.409 L 188.926 275.149 C 185.606 273.239 182.496 271.019 179.626 268.519 C 169.396 277.429 156.046 282.829 141.456 282.829 C 134.006 282.829 126.876 281.419 120.326 278.859 L 131.806 186.409 Z"
        fill="#e3e0e4"/>
    <path
        id="path_61"
        d="M 391.586 278.859 C 385.036 281.419 377.906 282.829 370.456 282.829 C 355.866 282.829 342.516 277.429 332.286 268.519 C 329.416 271.019 326.306 273.239 322.986 275.149 L 311.966 186.409 L 380.106 186.409 L 389.596 262.829 Z"
        fill="#e3e0e4"/>
    <path
        id="path_62"
        d="M 255.776 7.519 L 103.286 186.409 L 27.556 186.409 C 27.836 185.909 28.186 185.459 28.606 185.079 L 29.116 184.669 C 29.126 184.659 29.146 184.649 29.156 184.639 L 243.676 11.869 C 247.146 9.079 251.606 7.629 255.776 7.519 Z"
        fill="#f9f8f9"/>
    <path
        id="path_63"
        d="M 141.456 262.825 C 120.377 262.825 103.289 245.737 103.289 224.658 L 103.289 186.408 L 179.622 186.408 L 179.622 224.658 C 179.623 245.737 162.535 262.825 141.456 262.825 Z"
        fill="#dc4955"/>
    <path
        id="path_64"
        d="M 294.123 262.825 C 273.044 262.825 255.956 245.737 255.956 224.658 L 255.956 186.408 L 332.289 186.408 L 332.289 224.658 C 332.29 245.737 315.202 262.825 294.123 262.825 Z"
        fill="#dc4955"/>
    <path
        id="path_65"
        d="M 446.79 262.825 C 425.711 262.825 408.623 245.737 408.623 224.658 L 408.623 186.408 L 484.956 186.408 L 484.956 224.658 C 484.956 245.737 467.869 262.825 446.79 262.825 Z"
        fill="#dc4955"/>
    <path
        id="path_66"
        d="M 255.776 7.519 L 206.796 117.675 L 141.456 186.409 L 27.556 186.409 C 27.836 185.909 28.186 185.459 28.606 185.079 L 29.116 184.669 C 29.126 184.659 29.146 184.649 29.156 184.639 L 243.676 11.869 C 247.146 9.079 251.606 7.629 255.776 7.519 Z"
        fill="#f9f8f9"/>
    <path
        id="path_67"
        d="M 255.956 8.289 L 271.137 108.824 L 255.956 186.409 L 141.456 186.409 L 255.775 7.519 Z"
        fill="#df646e"/>
    <path
        id="path_68"
        d="M 370.456 186.409 L 255.956 186.409 L 255.775 7.519 L 340.924 102.015 Z"
        fill="#f9f8f9"/>
    <path
        id="path_69"
        d="M 484.956 186.409 L 370.456 186.409 L 255.956 8.289 L 255.775 7.519 C 260.135 7.509 264.676 8.949 268.306 11.869 Z"
        fill="#df646e"/>
    <path
        id="path_70"
        d="M 408.626 186.409 L 484.956 186.409 L 484.956 217.189 L 408.626 217.189 Z"
        fill="#d82f3c"/>
    <path
        id="path_71"
        d="M 255.956 186.409 L 332.286 186.409 L 332.286 217.189 L 255.956 217.189 Z"
        fill="#d82f3c"/>
    <path
        id="path_72"
        d="M 103.286 186.409 L 179.626 186.409 L 179.626 217.189 L 103.286 217.189 Z"
        fill="#d82f3c"/>
    <path
        id="path_73"
        d="M 255.776 7.519 L 80.158 186.409 L 27.556 186.409 C 27.836 185.909 28.186 185.459 28.606 185.079 L 29.116 184.669 C 29.126 184.659 29.146 184.649 29.156 184.639 L 243.676 11.869 C 247.146 9.079 251.606 7.629 255.776 7.519 Z"
        fill="#efedef"/>
    <path
        id="path_74"
        d="M 255.776 7.519 L 198.706 186.409 L 141.456 186.409 Z"
        fill="#dc4955"/>
    <path
        id="path_75"
        d="M 103.286 186.409 L 103.286 224.659 C 103.286 245.739 86.206 262.829 65.126 262.829 C 44.046 262.829 26.956 245.739 26.956 224.659 L 26.956 188.789 C 26.956 187.929 27.176 187.119 27.556 186.409 Z"
        fill="#efedef"/>
    <path
        id="path_76"
        d="M 217.79 262.825 C 196.711 262.825 179.623 245.737 179.623 224.658 L 179.623 186.408 L 255.956 186.408 L 255.956 224.658 C 255.956 245.737 238.869 262.825 217.79 262.825 Z"
        fill="#efedef"/>
    <path
        id="path_77"
        d="M 179.626 186.409 L 255.956 186.409 L 255.956 217.189 L 179.626 217.189 Z"
        fill="#e3e0e4"/>
    <path
        id="path_78"
        d="M 103.286 186.409 L 103.286 217.189 L 26.956 217.189 L 26.956 188.789 C 26.956 187.929 27.176 187.119 27.556 186.409 Z"
        fill="#e3e0e4"/>
    <path
        id="path_79"
        d="M 370.456 262.825 C 349.377 262.825 332.289 245.737 332.289 224.658 L 332.289 186.408 L 408.622 186.408 L 408.622 224.658 C 408.623 245.737 391.535 262.825 370.456 262.825 Z"
        fill="#efedef"/>
    <path
        id="path_80"
        d="M 332.286 186.409 L 408.626 186.409 L 408.626 217.189 L 332.286 217.189 Z"
        fill="#e3e0e4"/>
    <path
        id="path_81"
        d="M 492.456 224.659 L 492.456 186.409 C 492.457 184.163 491.405 181.977 489.661 180.569 L 273.006 6.02 C 262.982 -2.028 248.961 -1.987 238.969 6.025 L 22.252 180.567 C 20.508 181.976 19.456 184.162 19.457 186.408 L 19.457 224.658 C 19.457 246.971 35.548 265.586 56.732 269.539 L 29.075 492.252 C 27.586 502.361 36.226 512.14 46.442 511.908 L 92.308 511.908 C 92.313 511.908 92.318 511.909 92.324 511.909 C 92.331 511.909 92.338 511.908 92.345 511.908 L 160.45 511.908 C 160.455 511.908 160.46 511.909 160.466 511.909 C 160.473 511.909 160.48 511.908 160.487 511.908 L 351.426 511.908 C 351.433 511.908 351.44 511.909 351.447 511.909 C 351.452 511.909 351.457 511.908 351.463 511.908 L 419.568 511.908 C 419.575 511.908 419.582 511.909 419.589 511.909 C 419.594 511.909 419.599 511.908 419.605 511.908 L 465.471 511.908 C 475.687 512.14 484.326 502.36 482.838 492.252 L 476.301 439.609 C 475.79 435.499 472.047 432.583 467.934 433.09 C 463.824 433.6 460.905 437.346 461.415 441.456 L 467.952 494.099 C 467.905 495.962 467.314 496.631 465.471 496.908 L 426.225 496.908 L 397.041 261.901 C 397.036 261.857 397.024 261.814 397.018 261.77 C 401.587 258.491 405.527 254.394 408.623 249.69 C 415.63 260.337 426.961 267.893 440.102 269.83 L 457.101 406.723 C 457.573 410.52 460.804 413.3 464.535 413.3 C 464.843 413.3 465.155 413.28 465.469 413.241 C 469.579 412.731 472.498 408.985 471.988 404.875 L 455.182 269.538 C 476.366 265.587 492.456 246.972 492.456 224.659 Z M 408.623 178.909 L 374.552 178.909 L 278.802 29.952 L 463.692 178.908 L 408.623 178.908 Z M 335.925 496.909 C 322.744 480.264 311.057 462.521 301.196 444.094 C 299.242 440.442 294.696 439.064 291.044 441.021 C 287.392 442.975 286.016 447.52 287.97 451.172 C 296.432 466.983 306.181 482.308 317.018 496.909 L 194.901 496.909 C 228.754 451.266 245.498 406.78 253.663 376.458 C 254.494 373.371 255.25 370.38 255.946 367.476 C 259.525 382.382 264.813 399.78 272.629 418.716 C 274.209 422.583 278.69 424.357 282.423 422.787 C 286.252 421.207 288.075 416.821 286.494 412.993 C 263.901 358.257 263.46 316.213 263.456 315.461 L 263.456 258.468 C 271.567 265.832 282.33 270.326 294.123 270.326 C 301.343 270.326 308.172 268.635 314.248 265.639 L 342.967 496.909 Z M 168.945 496.909 L 189.1 334.603 C 189.61 330.493 186.692 326.747 182.581 326.237 C 178.464 325.721 174.724 328.645 174.214 332.756 L 153.83 496.909 L 100.803 496.909 L 129.152 268.628 C 133.07 269.726 137.193 270.326 141.457 270.326 C 157.4 270.326 171.452 262.108 179.624 249.691 C 180.897 251.625 182.307 253.459 183.85 255.173 L 178.529 298.023 C 178.019 302.133 180.937 305.879 185.048 306.389 C 185.362 306.428 185.673 306.448 185.982 306.448 C 189.712 306.448 192.944 303.668 193.416 299.871 L 197.667 265.639 C 203.743 268.635 210.572 270.326 217.792 270.326 C 229.585 270.326 240.347 265.832 248.459 258.468 L 248.459 315.455 C 248.459 315.685 248.306 338.919 239.03 373.119 C 230.658 403.988 212.937 450.269 176.007 496.909 Z M 110.79 193.909 L 141.435 193.909 C 141.44 193.909 141.444 193.91 141.449 193.91 C 141.454 193.91 141.459 193.909 141.465 193.909 L 172.123 193.909 L 172.123 224.659 C 172.123 241.569 158.366 255.326 141.456 255.326 C 124.546 255.326 110.79 241.569 110.79 224.659 Z M 248.456 193.909 L 248.456 224.659 C 248.456 241.569 234.699 255.326 217.789 255.326 C 200.879 255.326 187.122 241.569 187.122 224.659 L 187.122 193.909 Z M 324.79 224.659 C 324.79 241.569 311.033 255.326 294.123 255.326 C 277.213 255.326 263.456 241.569 263.456 224.659 L 263.456 193.909 L 324.789 193.909 L 324.789 224.659 Z M 332.29 178.909 L 263.457 178.909 L 263.457 33.82 L 356.72 178.909 Z M 231.293 31.467 L 186.057 102.458 C 183.831 105.951 184.859 110.587 188.352 112.813 C 189.601 113.609 190.996 113.989 192.375 113.989 C 194.853 113.989 197.277 112.762 198.708 110.518 L 248.457 32.445 L 248.457 178.908 L 179.624 178.908 L 155.13 178.908 L 179.882 140.063 C 182.108 136.57 181.08 131.934 177.587 129.708 C 174.093 127.482 169.457 128.509 167.232 132.003 L 137.343 178.908 L 103.29 178.908 L 48.225 178.908 Z M 34.456 224.659 L 34.456 193.909 L 95.79 193.909 L 95.79 224.659 C 95.79 241.569 82.033 255.326 65.123 255.326 C 48.213 255.326 34.456 241.568 34.456 224.659 Z M 44.568 496.064 C 44.289 495.749 43.839 495.074 43.961 494.1 L 71.811 269.831 C 84.952 267.894 96.284 260.338 103.29 249.691 C 106.386 254.395 110.326 258.492 114.895 261.771 C 114.889 261.815 114.877 261.857 114.872 261.902 L 85.688 496.909 L 46.442 496.909 C 45.461 496.909 44.847 496.379 44.568 496.064 Z M 411.109 496.909 L 358.082 496.909 L 328.063 255.174 C 329.606 253.459 331.017 251.625 332.289 249.692 C 340.46 262.109 354.513 270.327 370.456 270.327 C 374.719 270.327 378.843 269.727 382.761 268.629 Z M 370.456 255.326 C 353.546 255.326 339.789 241.569 339.789 224.659 L 339.789 193.909 L 370.446 193.909 C 370.451 193.909 370.457 193.91 370.462 193.91 C 370.467 193.91 370.471 193.909 370.476 193.909 L 401.122 193.909 L 401.122 224.659 C 401.123 241.568 387.366 255.326 370.456 255.326 Z M 477.456 224.659 C 477.456 241.569 463.699 255.326 446.789 255.326 C 429.879 255.326 416.122 241.569 416.122 224.659 L 416.122 193.909 L 477.455 193.909 L 477.455 224.659 Z"
        fill="#000000"/>
</svg>
