<svg
    xmlns="http://www.w3.org/2000/svg"
    viewBox="0 0 512 512"
    id="vector">
    <path
        id="path"
        d="M 414.488 173.588 L 414.488 67.5 L 354.488 67.5 L 354.488 278.605 L 489.488 278.605 L 489.488 248.605 C 448.067 248.605 414.488 215.009 414.488 173.588 Z"
        fill="#26abff"/>
    <path
        id="path_1"
        d="M 384.488 173.588 L 384.488 67.5 L 324.488 67.5 L 324.488 278.605 L 459.488 278.605 L 459.488 248.605 C 418.067 248.605 384.488 215.009 384.488 173.588 Z"
        fill="#30caf3"/>
    <path
        id="path_2"
        d="M 354.488 173.588 L 354.488 67.5 L 234.5 67.5 L 234.5 278.605 L 429.488 278.605 L 429.488 248.605 C 388.067 248.605 354.488 215.009 354.488 173.588 Z"
        fill="#3ae8e6"/>
    <path
        id="path_3"
        d="M 444.5 7.5 L 414.5 7.5 L 474.5 142.488 C 491.08 142.482 504.5 129.058 504.5 112.5 L 504.5 67.5 C 504.5 34.363 477.637 7.5 444.5 7.5 Z"
        fill="#bdf7f7"/>
    <path
        id="path_4"
        d="M 414.5 7.5 L 384.5 7.5 L 444.5 112.5 C 444.5 129.062 457.926 142.488 474.488 142.488 C 474.5 142.488 474.5 67.5 474.5 67.5 C 474.5 34.363 447.637 7.5 414.5 7.5 Z"
        fill="#ffffff"/>
    <path
        id="path_5"
        d="M 384.5 7.5 L 354.5 7.5 L 414.5 142.488 C 431.08 142.482 444.5 129.058 444.5 112.5 L 444.5 67.5 C 444.5 34.363 417.637 7.5 384.5 7.5 Z"
        fill="#bdf7f7"/>
    <path
        id="path_6"
        d="M 354.5 7.5 L 324.5 7.5 L 384.5 112.5 C 384.5 129.062 397.926 142.488 414.488 142.488 C 414.5 142.488 414.5 67.5 414.5 67.5 C 414.5 34.363 387.637 7.5 354.5 7.5 Z"
        fill="#ffffff"/>
    <path
        id="path_7"
        d="M 324.5 7.5 L 294.5 7.5 L 354.5 142.488 C 371.08 142.482 384.5 129.058 384.5 112.5 L 384.5 67.5 C 384.5 34.363 357.637 7.5 324.5 7.5 Z"
        fill="#bdf7f7"/>
    <path
        id="path_8"
        d="M 294.5 7.5 L 264.5 7.5 L 324.5 112.5 C 324.5 129.062 337.926 142.488 354.488 142.488 C 354.5 142.488 354.5 67.5 354.5 67.5 C 354.5 34.363 327.637 7.5 294.5 7.5 Z"
        fill="#ffffff"/>
    <path
        id="path_16"
        d="M 264.5 7.5 L 234.5 7.5 L 294.5 142.488 C 311.08 142.482 324.5 129.058 324.5 112.5 L 324.5 67.5 C 324.5 34.363 297.637 7.5 264.5 7.5 Z"
        fill="#bdf7f7"/>
    <path
        id="path_17"
        d="M 234.5 7.5 L 204.5 7.5 L 264.5 112.5 C 264.5 129.062 277.926 142.488 294.488 142.488 C 294.5 142.488 294.5 67.5 294.5 67.5 C 294.5 34.363 267.637 7.5 234.5 7.5 Z"
        fill="#ffffff"/>
    <path
        id="path_18"
        d="M 504.5 248.605 L 474.5 248.605 L 459.5 264.5 L 459.5 384.5 L 504.5 293.605 Z"
        fill="#3ae8e6"/>
    <path
        id="path_19"
        d="M 162.074 25.074 L 7.5 179.647 L 7.5 293.605 L 37.5 323.605 L 474.5 323.605 L 474.5 248.605 L 339.833 248.605 C 298.412 248.605 264.5 215.009 264.5 173.587 L 264.5 67.5 C 264.5 34.363 237.637 7.5 204.5 7.5 C 187.931 7.5 172.931 14.216 162.074 25.074 Z"
        fill="#7cf0ee"/>
    <path
        id="path_20"
        d="M 504.5 293.605 L 474.5 293.605 L 459.5 309.5 L 459.5 429.5 L 504.5 353.588 Z"
        fill="#3b7bc1"/>
    <path
        id="path_21"
        d="M 256 293.605 C 243.565 293.605 232.412 288.145 224.786 279.5 C 217.16 288.145 206.006 293.605 193.572 293.605 C 181.137 293.605 169.984 288.145 162.358 279.5 C 154.732 288.145 143.578 293.605 131.144 293.605 C 118.71 293.605 107.556 288.145 99.93 279.5 C 92.304 288.145 81.15 293.605 68.716 293.605 C 56.282 293.605 45.126 288.145 37.5 279.5 C 30.123 287.863 19.445 293.245 7.5 293.588 L 7.5 353.606 L 37.5 383.606 L 474.5 383.606 L 474.5 293.606 L 256 293.606 Z"
        fill="#3193e0"/>
    <path
        id="path_22"
        d="M 504.5 353.588 C 492.555 353.245 481.877 347.863 474.5 339.5 L 444.5 422 L 504.5 398.5 Z"
        fill="#3193e0"/>
    <path
        id="path_23"
        d="M 443.286 353.605 C 430.851 353.605 419.698 348.145 412.072 339.5 C 404.446 348.145 393.292 353.605 380.858 353.605 C 368.423 353.605 357.27 348.145 349.644 339.5 C 342.018 348.145 330.864 353.605 318.43 353.605 C 305.996 353.605 294.842 348.145 287.216 339.5 C 279.59 348.145 268.436 353.605 256.002 353.605 C 243.567 353.605 232.414 348.145 224.788 339.5 C 217.162 348.145 206.008 353.605 193.574 353.605 C 181.139 353.605 169.986 348.145 162.36 339.5 C 154.734 348.145 143.58 353.605 131.146 353.605 C 118.712 353.605 107.558 348.145 99.932 339.5 C 92.306 348.145 81.152 353.605 68.718 353.605 C 56.284 353.605 45.126 348.145 37.5 339.5 C 30.123 347.863 19.445 353.245 7.5 353.588 L 7.5 458.5 L 37.5 489.5 L 474.5 489.5 L 474.5 339.5 C 466.874 348.145 455.72 353.605 443.286 353.605 Z"
        fill="#26abff"/>
    <path
        id="path_24"
        d="M 474.5 398.5 L 444.5 451.5 L 474.5 504.5 L 504.5 504.5 L 504.5 398.5 Z"
        fill="#26abff"/>
    <path
        id="path_25"
        d="M 241 413.5 C 241 421.784 247.716 428.5 256 428.5 C 264.284 428.5 271 435.216 271 443.5 C 271 451.784 264.284 458.5 256 458.5 L 7.5 458.5 L 7.5 504.5 L 474.5 504.5 L 474.5 398.5 L 256 398.5 C 247.716 398.5 241 405.216 241 413.5 Z"
        fill="#30caf3"/>
    <path
        id="path_26"
        d="M 444.498 134.967 C 451.343 144.081 462.239 149.989 474.489 149.989 C 495.173 149.989 512.001 133.172 512.001 112.501 L 512.001 67.501 C 512 30.28 481.72 0 444.5 0 L 204.5 0 C 186.47 0 169.52 7.021 156.771 19.771 L 2.197 174.344 C 0.79 175.75 0 177.658 0 179.647 L 0 504.5 C 0 508.642 3.358 512 7.5 512 L 504.5 512 C 508.643 512 512 508.642 512 504.5 L 512 248.605 C 512 244.463 508.643 241.105 504.5 241.105 L 489.488 241.105 C 452.268 241.105 421.988 210.817 421.988 173.587 L 421.988 149.233 C 431.136 147.372 439.083 142.172 444.498 134.967 Z M 444.5 15 C 473.448 15 497 38.551 497 67.5 L 497 112.5 C 497 124.9 486.901 134.988 474.488 134.988 C 462.088 134.988 452 124.9 452 112.5 L 452 67.5 C 452 46.313 442.18 27.384 426.861 15 Z M 384.5 15 C 413.448 15 437 38.551 437 67.5 L 437 112.5 C 437 124.9 426.901 134.988 414.488 134.988 C 402.086 134.988 391.995 124.9 391.995 112.5 L 391.995 67.5 C 391.995 46.313 382.175 27.384 366.858 15 Z M 272 142.474 C 278.269 147.19 286.058 149.989 294.488 149.989 C 306.746 149.989 317.648 144.082 324.497 134.967 C 331.342 144.081 342.238 149.989 354.488 149.989 C 362.926 149.989 370.721 147.187 376.995 142.469 L 376.995 173.589 C 376.995 201.478 390.912 226.163 412.15 241.107 L 339.833 241.107 C 302.43 241.107 272 210.819 272 173.589 Z M 264.5 15 C 293.448 15 317 38.551 317 67.5 C 317 71.642 320.357 75 324.5 75 C 328.643 75 332 71.642 332 67.5 C 332 46.313 322.18 27.384 306.861 15 L 324.5 15 C 353.446 15 376.995 38.551 376.995 67.5 L 376.995 112.5 C 376.995 124.9 366.898 134.988 354.488 134.988 C 342.088 134.988 332 124.9 332 112.5 L 332 97.5 C 332 93.358 328.643 90 324.5 90 C 320.357 90 317 93.358 317 97.5 L 317 112.5 C 317 124.9 306.901 134.988 294.488 134.988 C 282.088 134.988 272 124.9 272 112.5 L 272 67.5 C 272 46.313 262.18 27.384 246.861 15 Z M 256 436 C 260.136 436 263.5 439.364 263.5 443.5 C 263.5 447.636 260.136 451 256 451 L 15 451 L 15 360.312 C 23.244 358.815 31.014 355.222 37.497 349.894 C 46.234 357.089 57.258 361.105 68.715 361.105 C 80.17 361.105 91.193 357.09 99.929 349.897 C 108.665 357.089 119.688 361.105 131.143 361.105 C 142.598 361.105 153.621 357.09 162.357 349.897 C 171.093 357.089 182.115 361.105 193.571 361.105 C 205.027 361.105 216.05 357.09 224.785 349.897 C 233.521 357.089 244.544 361.105 255.999 361.105 C 267.454 361.105 278.477 357.09 287.214 349.897 C 295.949 357.089 306.973 361.105 318.428 361.105 C 329.883 361.105 340.907 357.09 349.642 349.897 C 358.379 357.089 369.402 361.105 380.857 361.105 C 392.312 361.105 403.336 357.09 412.071 349.897 C 420.808 357.089 431.831 361.105 443.286 361.105 C 454.743 361.105 465.766 357.089 474.504 349.895 C 480.987 355.223 488.756 358.815 497 360.312 L 497 391 L 256 391 C 243.593 391 233.5 401.093 233.5 413.5 C 233.5 425.907 243.593 436 256 436 Z M 497 344.956 C 490.535 343.236 484.621 339.636 480.125 334.539 C 478.701 332.925 476.652 332 474.5 332 C 472.348 332 470.299 332.925 468.875 334.539 C 462.392 341.89 453.064 346.106 443.286 346.106 C 433.508 346.106 424.181 341.89 417.695 334.539 C 416.271 332.925 414.223 332 412.071 332 C 409.919 332 407.87 332.925 406.446 334.539 C 399.963 341.89 390.635 346.106 380.857 346.106 C 371.079 346.106 361.752 341.89 355.266 334.539 C 353.842 332.925 351.794 332 349.642 332 C 347.49 332 345.441 332.925 344.017 334.539 C 337.534 341.89 328.206 346.106 318.428 346.106 C 308.65 346.106 299.323 341.89 292.839 334.539 C 291.415 332.925 289.366 332 287.214 332 C 285.062 332 283.014 332.924 281.59 334.539 C 275.105 341.89 265.777 346.106 255.999 346.106 C 246.221 346.106 236.894 341.89 230.409 334.539 C 228.985 332.925 226.937 332 224.784 332 C 222.631 332 220.583 332.925 219.159 334.539 C 212.675 341.89 203.348 346.106 193.569 346.106 C 183.791 346.106 174.464 341.89 167.98 334.539 C 166.556 332.925 164.508 332 162.355 332 C 160.203 332 158.154 332.925 156.73 334.539 C 150.246 341.89 140.918 346.106 131.14 346.106 C 121.362 346.106 112.035 341.89 105.55 334.539 C 104.126 332.925 102.078 332 99.925 332 C 97.772 332 95.724 332.925 94.3 334.539 C 87.816 341.89 78.488 346.106 68.71 346.106 C 58.932 346.106 49.605 341.89 43.12 334.539 C 41.701 332.925 39.652 332 37.5 332 C 35.348 332 33.299 332.925 31.875 334.539 C 27.379 339.636 21.465 343.236 15 344.956 L 15 300.313 C 23.244 298.816 31.014 295.223 37.497 289.895 C 46.234 297.09 57.258 301.106 68.715 301.106 C 80.17 301.106 91.193 297.091 99.929 289.898 C 108.665 297.09 119.688 301.106 131.143 301.106 C 142.598 301.106 153.621 297.091 162.357 289.898 C 171.093 297.09 182.115 301.106 193.571 301.106 C 205.027 301.106 216.05 297.091 224.785 289.898 C 233.521 297.09 244.544 301.106 255.999 301.106 L 496.999 301.106 L 496.999 344.956 Z M 15 497 L 15 466 L 256 466 C 268.406 466 278.5 455.907 278.5 443.5 C 278.5 431.093 268.406 421 256 421 C 251.864 421 248.5 417.636 248.5 413.5 C 248.5 409.364 251.864 406 256 406 L 497 406 L 497 497 Z M 497 256.105 L 497 286.105 L 256 286.105 C 246.222 286.105 236.895 281.889 230.41 274.538 C 228.986 272.924 226.938 271.999 224.785 271.999 C 222.632 271.999 220.584 272.924 219.16 274.538 C 212.676 281.889 203.349 286.105 193.57 286.105 C 183.792 286.105 174.465 281.889 167.981 274.538 C 166.557 272.924 164.509 271.999 162.356 271.999 C 160.204 271.999 158.155 272.924 156.731 274.538 C 150.247 281.889 140.919 286.105 131.141 286.105 C 121.363 286.105 112.036 281.889 105.551 274.538 C 104.127 272.924 102.079 271.999 99.926 271.999 C 97.773 271.999 95.725 272.924 94.301 274.538 C 87.817 281.889 78.489 286.105 68.711 286.105 C 58.933 286.105 49.606 281.889 43.121 274.538 C 41.701 272.925 39.652 272 37.5 272 C 35.348 272 33.299 272.925 31.875 274.539 C 27.379 279.636 21.465 283.236 15 284.956 L 15 182.753 L 167.377 30.377 C 177.293 20.461 190.477 15 204.5 15 C 233.449 15 257 38.551 257 67.5 L 257 173.588 C 257 219.088 294.159 256.106 339.833 256.106 L 497 256.106 Z M 437.068 237.26 C 410.842 227.991 391.995 202.956 391.995 173.587 L 391.995 142.471 C 396.356 145.751 401.452 148.104 406.988 149.232 L 406.988 173.586 C 406.988 199.194 418.71 222.114 437.068 237.26 Z"
        fill="#000000"/>
</svg>
