<svg
    xmlns="http://www.w3.org/2000/svg"
    viewBox="0 0 128 128"
    id="vector">
    <path
        id="path_9"
        d="M 122.427 82.2 L 107.835 84.69 L 90.983 74.96 L 115.846 64 L 90.988 53.037 L 107.835 43.311 L 122.427 45.801 L 123.772 37.916 L 112.51 35.993 L 116.476 25.277 L 108.976 22.5 L 103.836 36.383 L 86.989 46.109 L 89.926 19.1 L 68 35.152 L 68 18.252 L 77.453 6.855 L 71.3 1.747 L 64 10.541 L 56.7 1.747 L 50.547 6.855 L 60 18.248 L 60 35.148 L 38.084 19.1 L 41.022 46.114 L 24.165 36.383 L 19.026 22.5 L 11.526 25.277 L 15.49 35.993 L 4.227 37.916 L 5.573 45.8 L 20.165 43.31 L 37.016 53.038 L 12.164 64 L 37.021 74.958 L 20.165 84.689 L 5.573 82.2 L 4.227 90.084 L 15.49 92.007 L 11.523 102.723 L 19.023 105.5 L 24.162 91.617 L 41.018 81.885 L 38.081 108.893 L 60 92.849 L 60 109.749 L 50.547 121.141 L 56.703 126.249 L 64.003 117.456 L 71.303 126.249 L 77.459 121.141 L 68 109.747 L 68 92.847 L 89.926 108.898 L 86.99 81.898 L 103.834 91.623 L 108.974 105.506 L 116.474 102.729 L 112.51 92.007 L 123.772 90.084 Z M 96.018 64 L 82.4 70 L 72 64 L 82.4 57.994 Z M 80.012 36.273 L 78.4 51.066 L 68 57.072 L 68 45.066 Z M 48 36.274 L 60 45.059 L 60 57.072 L 49.608 51.072 Z M 31.993 64 L 45.6 58 L 56 64 L 45.607 70 Z M 48 91.72 L 49.609 76.928 L 60.002 70.928 L 60.002 82.935 Z M 80.014 91.72 L 68 82.928 L 68 70.928 L 78.4 76.935 Z"
        fill="#81c8ee"/>
    <path
        id="path_10"
        d="M 83.1 71.6 L 96.724 65.6 C 97.139 65.416 97.467 65.078 97.637 64.657 C 97.808 64.236 97.808 63.764 97.637 63.343 C 97.467 62.922 97.139 62.584 96.724 62.4 L 83.108 56.4 C 82.856 56.289 82.582 56.239 82.307 56.254 C 82.032 56.269 81.765 56.348 81.527 56.486 L 71.127 62.491 C 70.771 62.697 70.498 63.022 70.358 63.408 C 70.217 63.795 70.217 64.219 70.358 64.606 C 70.498 64.992 70.771 65.317 71.127 65.523 L 81.527 71.523 C 81.793 71.676 82.095 71.757 82.402 71.757 C 82.643 71.754 82.881 71.7 83.1 71.6 Z M 75.5 64 L 82.509 59.954 L 91.68 64 L 82.5 68.043 Z"
        fill="#000000"/>
    <path
        id="path_11"
        d="M 47.123 93.236 C 47.417 93.406 47.753 93.487 48.092 93.469 C 48.431 93.452 48.758 93.336 49.032 93.136 L 61.032 84.351 C 61.254 84.189 61.435 83.976 61.559 83.731 C 61.683 83.485 61.748 83.214 61.748 82.939 L 61.748 70.928 C 61.748 70.517 61.603 70.118 61.339 69.803 C 61.074 69.488 60.707 69.276 60.302 69.204 C 59.897 69.133 59.479 69.206 59.123 69.412 L 48.73 75.412 C 48.492 75.55 48.29 75.741 48.139 75.972 C 47.989 76.202 47.896 76.465 47.866 76.738 L 46.259 91.531 C 46.222 91.868 46.284 92.209 46.438 92.512 C 46.591 92.814 46.829 93.066 47.123 93.236 Z M 51.251 78 L 58.251 73.959 L 58.251 82.047 L 50.168 87.964 Z"
        fill="#000000"/>
    <path
        id="path_12"
        d="M 66.25 82.928 C 66.25 83.203 66.315 83.474 66.439 83.72 C 66.564 83.965 66.744 84.177 66.966 84.34 L 78.977 93.133 C 79.344 93.402 79.801 93.517 80.252 93.455 C 80.702 93.392 81.111 93.156 81.391 92.798 C 81.671 92.439 81.8 91.985 81.751 91.533 L 80.143 76.745 C 80.113 76.471 80.02 76.209 79.869 75.978 C 79.719 75.748 79.516 75.556 79.278 75.419 L 68.878 69.412 C 68.522 69.206 68.104 69.133 67.699 69.204 C 67.294 69.276 66.927 69.488 66.662 69.803 C 66.398 70.118 66.253 70.517 66.253 70.928 Z M 69.75 73.959 L 76.76 78.006 L 77.843 87.964 L 69.75 82.04 Z"
        fill="#000000"/>
    <path
        id="path_13"
        d="M 124.151 81.9 C 124.1 81.597 123.969 81.313 123.773 81.077 C 123.577 80.84 123.322 80.659 123.034 80.553 C 122.746 80.446 122.435 80.418 122.132 80.47 L 108.163 82.854 L 94.846 75.169 L 116.552 65.6 C 116.959 65.402 117.275 65.054 117.431 64.628 C 117.587 64.203 117.572 63.734 117.389 63.319 C 117.206 62.905 116.869 62.577 116.45 62.406 C 116.031 62.234 115.561 62.232 115.14 62.4 L 90.277 73.359 C 89.881 73.534 89.563 73.849 89.386 74.245 C 89.209 74.64 89.184 75.087 89.318 75.499 C 89.451 75.911 89.733 76.259 90.108 76.476 L 106.96 86.205 C 107.314 86.409 107.728 86.483 108.13 86.415 L 121 84.218 L 121.757 88.654 L 112.219 90.282 C 111.88 90.34 111.566 90.496 111.315 90.732 C 111.064 90.967 110.889 91.271 110.81 91.606 C 110.731 91.941 110.753 92.291 110.872 92.614 L 114.231 101.689 L 110.011 103.252 L 105.48 91.009 C 105.337 90.627 105.066 90.306 104.713 90.101 L 87.864 80.376 C 87.489 80.16 87.048 80.091 86.625 80.181 C 86.203 80.271 85.828 80.515 85.574 80.865 C 85.32 81.214 85.205 81.646 85.25 82.076 L 87.757 105.131 L 69.034 91.43 C 68.685 91.174 68.252 91.057 67.821 91.101 C 67.391 91.145 66.991 91.348 66.701 91.669 C 66.411 91.991 66.25 92.409 66.25 92.842 L 66.25 109.747 C 66.249 110.154 66.391 110.55 66.65 110.864 L 74.986 120.91 L 71.523 123.783 L 65.344 116.336 C 65.117 116.083 64.823 115.899 64.497 115.805 C 64.17 115.712 63.824 115.712 63.497 115.805 C 63.171 115.899 62.877 116.083 62.65 116.336 L 56.471 123.783 L 53.008 120.91 L 61.344 110.864 C 61.603 110.55 61.745 110.154 61.744 109.747 L 61.744 92.847 C 61.744 92.414 61.583 91.996 61.292 91.675 C 61.002 91.354 60.603 91.151 60.172 91.107 C 59.742 91.063 59.31 91.18 58.96 91.435 L 40.247 105.135 L 42.755 82.072 C 42.801 81.642 42.685 81.21 42.431 80.86 C 42.177 80.51 41.802 80.266 41.379 80.176 C 40.956 80.086 40.515 80.156 40.14 80.372 L 23.29 90.1 C 22.937 90.304 22.666 90.626 22.524 91.008 L 17.993 103.251 L 13.772 101.688 L 17.131 92.613 C 17.251 92.291 17.272 91.94 17.194 91.605 C 17.115 91.271 16.94 90.966 16.689 90.731 C 16.438 90.495 16.124 90.339 15.785 90.281 L 6.247 88.654 L 7 84.218 L 19.868 86.418 C 20.27 86.486 20.684 86.412 21.037 86.208 L 37.9 76.473 C 38.275 76.256 38.557 75.908 38.69 75.496 C 38.824 75.084 38.799 74.637 38.622 74.242 C 38.445 73.846 38.127 73.531 37.731 73.356 L 16.5 64 L 37.721 54.644 C 38.117 54.469 38.435 54.154 38.612 53.758 C 38.789 53.363 38.814 52.916 38.68 52.504 C 38.547 52.092 38.265 51.744 37.89 51.527 L 21.04 41.8 C 20.687 41.596 20.273 41.522 19.871 41.59 L 7 43.782 L 6.244 39.346 L 15.782 37.718 C 16.121 37.66 16.435 37.504 16.686 37.268 C 16.937 37.033 17.112 36.728 17.191 36.394 C 17.269 36.059 17.248 35.708 17.128 35.386 L 13.769 26.311 L 17.99 24.748 L 22.521 36.991 C 22.663 37.373 22.934 37.695 23.287 37.899 L 40.144 47.631 C 40.519 47.847 40.96 47.916 41.383 47.826 C 41.806 47.736 42.18 47.492 42.434 47.142 C 42.688 46.793 42.804 46.361 42.759 45.931 L 40.253 22.857 L 58.966 36.557 C 59.316 36.812 59.748 36.929 60.178 36.885 C 60.609 36.841 61.008 36.638 61.298 36.317 C 61.589 35.996 61.75 35.578 61.75 35.145 L 61.75 18.245 C 61.751 17.837 61.609 17.442 61.35 17.127 L 53.011 7.084 L 56.474 4.211 L 62.653 11.658 C 62.88 11.911 63.174 12.095 63.5 12.189 C 63.827 12.282 64.173 12.282 64.5 12.189 C 64.826 12.095 65.12 11.911 65.347 11.658 L 71.526 4.211 L 74.989 7.084 L 66.653 17.13 C 66.394 17.445 66.252 17.84 66.253 18.248 L 66.253 35.148 C 66.253 35.581 66.413 35.999 66.703 36.321 C 66.994 36.643 67.393 36.846 67.824 36.89 C 68.255 36.934 68.687 36.817 69.037 36.561 L 87.757 22.858 L 85.25 45.92 C 85.204 46.35 85.319 46.782 85.573 47.132 C 85.827 47.482 86.202 47.726 86.625 47.816 C 87.048 47.906 87.49 47.836 87.864 47.62 L 104.709 37.9 C 105.062 37.695 105.333 37.374 105.476 36.992 L 110.007 24.749 L 114.227 26.312 L 110.868 35.387 C 110.749 35.71 110.727 36.06 110.806 36.395 C 110.885 36.73 111.06 37.034 111.311 37.269 C 111.562 37.505 111.876 37.661 112.215 37.719 L 121.753 39.347 L 121 43.782 L 108.134 41.582 C 107.732 41.514 107.318 41.589 106.964 41.792 L 90.113 51.521 C 89.713 51.754 89.421 52.136 89.301 52.584 C 89.182 53.031 89.245 53.508 89.477 53.909 C 89.708 54.31 90.09 54.604 90.537 54.724 C 90.984 54.845 91.461 54.783 91.863 54.553 L 108.163 45.142 L 122.132 47.526 C 122.435 47.578 122.746 47.55 123.034 47.443 C 123.322 47.337 123.577 47.156 123.773 46.919 C 123.969 46.683 124.1 46.399 124.151 46.096 L 125.5 38.21 C 125.552 37.907 125.523 37.596 125.416 37.308 C 125.31 37.02 125.129 36.765 124.893 36.569 C 124.657 36.372 124.373 36.242 124.07 36.19 L 114.886 34.623 L 118.12 25.885 C 118.281 25.45 118.262 24.968 118.068 24.547 C 117.874 24.125 117.521 23.797 117.086 23.636 L 109.586 20.859 C 109.298 20.752 108.987 20.723 108.684 20.775 C 108.381 20.827 108.097 20.957 107.861 21.154 C 107.624 21.35 107.444 21.605 107.337 21.893 L 102.417 35.184 L 89.1 42.868 L 91.663 19.291 C 91.712 18.839 91.583 18.385 91.304 18.026 C 91.024 17.667 90.615 17.432 90.165 17.369 C 89.714 17.306 89.257 17.422 88.89 17.691 L 69.75 31.7 L 69.75 18.879 L 78.8 7.973 C 79.096 7.616 79.238 7.155 79.195 6.693 C 79.152 6.232 78.927 5.805 78.57 5.509 L 72.414 0.4 C 72.057 0.104 71.596 -0.038 71.135 0.005 C 70.673 0.048 70.246 0.272 69.95 0.629 L 64 7.8 L 58.05 0.629 C 57.753 0.272 57.327 0.048 56.865 0.005 C 56.403 -0.038 55.942 0.104 55.585 0.4 L 49.429 5.509 C 49.193 5.705 49.012 5.96 48.905 6.248 C 48.799 6.536 48.77 6.847 48.821 7.15 C 48.873 7.453 49.004 7.737 49.2 7.973 L 58.25 18.879 L 58.25 31.7 L 39.118 17.689 C 38.751 17.42 38.294 17.304 37.843 17.367 C 37.393 17.43 36.984 17.665 36.704 18.024 C 36.425 18.383 36.296 18.837 36.345 19.289 L 38.909 42.874 L 25.587 35.184 L 20.667 21.893 C 20.561 21.605 20.38 21.35 20.144 21.153 C 19.908 20.957 19.624 20.826 19.321 20.775 C 19.018 20.723 18.707 20.752 18.419 20.859 L 10.919 23.636 C 10.484 23.797 10.131 24.125 9.937 24.547 C 9.743 24.968 9.724 25.45 9.885 25.885 L 13.12 34.623 L 3.933 36.19 C 3.63 36.241 3.346 36.372 3.109 36.568 C 2.872 36.764 2.691 37.019 2.584 37.307 C 2.477 37.596 2.448 37.907 2.5 38.21 L 3.848 46.1 C 3.899 46.403 4.03 46.687 4.226 46.923 C 4.422 47.16 4.677 47.341 4.965 47.447 C 5.253 47.554 5.564 47.582 5.867 47.53 L 19.837 45.146 L 33.153 52.83 L 11.457 62.4 C 11.042 62.584 10.714 62.922 10.544 63.343 C 10.373 63.764 10.373 64.236 10.544 64.657 C 10.714 65.078 11.042 65.416 11.457 65.6 L 33.157 75.169 L 19.837 82.858 L 5.867 80.474 C 5.565 80.422 5.254 80.45 4.966 80.556 C 4.678 80.662 4.423 80.842 4.227 81.078 C 4.031 81.314 3.9 81.598 3.848 81.9 L 2.5 89.79 C 2.448 90.093 2.477 90.404 2.584 90.692 C 2.69 90.98 2.871 91.236 3.108 91.432 C 3.344 91.628 3.628 91.758 3.931 91.81 L 13.115 93.377 L 9.88 102.115 C 9.719 102.55 9.738 103.032 9.932 103.453 C 10.126 103.875 10.479 104.203 10.914 104.364 L 18.414 107.141 C 18.849 107.302 19.331 107.283 19.752 107.089 C 20.173 106.896 20.501 106.542 20.662 106.107 L 25.582 92.816 L 38.903 85.126 L 36.344 108.7 C 36.295 109.152 36.424 109.606 36.704 109.965 C 36.984 110.323 37.393 110.559 37.843 110.622 C 38.294 110.684 38.751 110.569 39.118 110.3 L 58.25 96.3 L 58.25 109.116 L 49.2 120.021 C 49.004 120.257 48.873 120.541 48.821 120.844 C 48.77 121.147 48.799 121.458 48.905 121.746 C 49.012 122.034 49.193 122.289 49.429 122.485 L 55.585 127.594 C 55.942 127.89 56.403 128.032 56.865 127.989 C 57.327 127.946 57.753 127.722 58.05 127.365 L 64 120.194 L 69.95 127.365 C 70.246 127.722 70.673 127.946 71.135 127.989 C 71.596 128.032 72.057 127.89 72.414 127.594 L 78.57 122.485 C 78.927 122.189 79.152 121.762 79.195 121.301 C 79.238 120.839 79.096 120.378 78.8 120.021 L 69.75 109.115 L 69.75 96.292 L 88.892 110.305 C 89.259 110.573 89.716 110.688 90.166 110.626 C 90.617 110.563 91.025 110.327 91.305 109.969 C 91.584 109.611 91.714 109.157 91.665 108.705 L 89.1 85.132 L 102.41 92.816 L 107.33 106.107 C 107.437 106.395 107.617 106.65 107.854 106.846 C 108.09 107.043 108.374 107.173 108.677 107.225 C 108.98 107.277 109.291 107.248 109.579 107.141 L 117.079 104.364 C 117.514 104.203 117.867 103.875 118.061 103.453 C 118.255 103.032 118.274 102.55 118.113 102.115 L 114.879 93.377 L 124.063 91.81 C 124.366 91.758 124.65 91.628 124.886 91.431 C 125.122 91.235 125.303 90.98 125.409 90.692 C 125.516 90.404 125.545 90.093 125.493 89.79 Z"
        fill="#000000"/>
    <path
        id="path_14"
        d="M 101.958 55.961 C 101.618 55.796 101.233 55.745 100.862 55.817 C 100.49 55.889 100.152 56.079 99.898 56.359 C 99.644 56.639 99.487 56.994 99.451 57.371 C 99.416 57.747 99.503 58.125 99.701 58.448 C 99.898 58.771 100.195 59.021 100.546 59.161 L 104.876 61.071 C 105.216 61.236 105.601 61.287 105.972 61.215 C 106.344 61.143 106.682 60.953 106.936 60.673 C 107.19 60.393 107.347 60.038 107.383 59.661 C 107.418 59.285 107.331 58.907 107.133 58.584 C 106.936 58.261 106.639 58.011 106.288 57.871 Z"
        fill="#000000"/>
    <path
        id="path_15"
        d="M 32.7 62.4 C 32.279 62.232 31.809 62.234 31.39 62.406 C 30.971 62.577 30.634 62.905 30.451 63.319 C 30.268 63.734 30.253 64.203 30.409 64.628 C 30.565 65.054 30.881 65.402 31.288 65.6 L 44.902 71.6 C 45.154 71.711 45.428 71.761 45.703 71.746 C 45.978 71.731 46.245 71.652 46.483 71.514 L 56.876 65.514 C 57.232 65.308 57.505 64.983 57.645 64.597 C 57.786 64.21 57.786 63.786 57.645 63.399 C 57.505 63.013 57.232 62.688 56.876 62.482 L 46.476 56.482 C 46.156 56.294 45.784 56.213 45.415 56.251 C 45.046 56.288 44.698 56.442 44.422 56.69 C 44.146 56.938 43.955 57.267 43.879 57.63 C 43.802 57.993 43.843 58.371 43.995 58.71 C 44.147 59.048 44.403 59.33 44.726 59.513 L 52.5 64 L 45.5 68.041 Z"
        fill="#000000"/>
    <path
        id="path_27"
        d="M 61.75 45.059 C 61.75 44.784 61.685 44.513 61.561 44.267 C 61.436 44.022 61.256 43.81 61.034 43.647 L 49.034 34.862 C 48.667 34.593 48.21 34.477 47.759 34.54 C 47.309 34.603 46.9 34.838 46.62 35.197 C 46.341 35.556 46.212 36.01 46.261 36.462 L 47.87 51.262 C 47.9 51.536 47.994 51.798 48.144 52.029 C 48.294 52.259 48.497 52.451 48.735 52.589 L 59.127 58.589 C 59.483 58.795 59.901 58.868 60.306 58.797 C 60.711 58.725 61.078 58.513 61.343 58.198 C 61.607 57.883 61.752 57.484 61.752 57.073 Z M 58.25 54.041 L 51.25 50.001 L 50.167 40.03 L 58.25 45.947 Z"
        fill="#000000"/>
    <path
        id="path_28"
        d="M 67.125 58.588 C 67.391 58.741 67.693 58.822 68 58.822 C 68.307 58.822 68.609 58.741 68.875 58.588 L 79.275 52.582 C 79.513 52.444 79.716 52.253 79.866 52.022 C 80.017 51.791 80.11 51.529 80.14 51.255 L 81.748 36.462 C 81.797 36.01 81.668 35.556 81.388 35.197 C 81.108 34.839 80.699 34.603 80.249 34.54 C 79.798 34.478 79.341 34.593 78.974 34.862 L 66.966 43.654 C 66.744 43.817 66.564 44.029 66.439 44.274 C 66.315 44.52 66.25 44.791 66.25 45.066 L 66.25 57.072 C 66.25 57.379 66.331 57.681 66.485 57.947 C 66.638 58.213 66.859 58.434 67.125 58.588 Z M 69.75 45.954 L 77.843 40.03 L 76.76 49.994 L 69.75 54.041 Z"
        fill="#000000"/>
</svg>
