<svg
    xmlns="http://www.w3.org/2000/svg"
    viewBox="0 0 512 512"
    id="vector">
    <path
        id="path_18"
        d="M 69.146 243.953 L 91.32 133.083 C 93.857 120.396 110.263 116.67 118.029 127.025 L 183.705 214.593 C 194.13 228.493 181.236 231.735 138.029 285.025 C 80.791 256.952 65.446 262.46 69.146 243.953 Z"
        fill="#ffc34d"/>
    <path
        id="path_19"
        d="M 375.029 285.025 C 331.579 232.881 317.657 228.854 328.353 214.593 L 394.029 127.025 C 401.794 116.673 418.2 120.392 420.738 133.083 L 442.912 243.953 C 446.769 263.245 428.226 258.369 375.029 285.025 Z"
        fill="#ff9933"/>
    <path
        id="path_20"
        d="M 488.079 183.985 L 380.659 263.885 L 269.049 68.585 C 266.179 63.555 261.119 61.035 256.039 61.035 C 250.969 61.035 245.889 63.555 243.009 68.585 L 131.399 263.885 L 23.979 183.985 C 12.669 175.575 -2.971 186.085 0.489 199.725 L 41.489 361.025 L 68.629 377.355 L 49.109 391.025 L 61.489 439.725 C 63.179 446.365 69.169 451.025 76.029 451.025 L 436.029 451.025 C 442.889 451.025 448.879 446.365 450.569 439.725 L 462.949 391.025 L 451.029 376.025 L 470.569 361.025 L 511.569 199.725 C 515.039 186.055 499.369 175.595 488.079 183.985 Z"
        fill="#ffea80"/>
    <path
        id="path_21"
        d="M 511.569 199.725 L 470.569 361.025 L 451.029 376.025 L 462.949 391.025 L 450.569 439.725 C 448.879 446.365 442.889 451.025 436.029 451.025 L 256.039 451.025 L 256.039 61.035 C 261.119 61.035 266.179 63.555 269.049 68.585 L 380.659 263.885 L 488.079 183.985 C 499.369 175.595 515.039 186.055 511.569 199.725 Z"
        fill="#ffc34d"/>
    <path
        id="path_22"
        d="M 313.889 293.305 L 268.889 218.305 C 265.969 213.445 261.009 211.025 256.039 211.025 C 251.059 211.025 246.069 213.465 243.169 218.305 L 198.169 293.305 C 195.319 298.055 195.319 303.995 198.169 308.745 L 243.169 383.745 C 246.089 388.605 251.069 391.025 256.039 391.025 C 261.009 391.015 265.989 388.575 268.889 383.745 L 313.889 308.745 C 316.739 303.995 316.739 298.055 313.889 293.305 Z"
        fill="#39ffff"/>
    <path
        id="path_23"
        d="M 313.889 308.745 L 268.889 383.745 C 265.989 388.575 261.009 391.015 256.039 391.025 L 256.039 211.025 C 261.009 211.025 265.969 213.445 268.889 218.305 L 313.889 293.305 C 316.739 298.055 316.739 303.995 313.889 308.745 Z"
        fill="#06d8f4"/>
    <path
        id="path_24"
        d="M 151.029 376.025 C 151.029 384.305 144.309 391.025 136.029 391.025 L 49.109 391.025 L 41.489 361.025 L 136.029 361.025 C 144.309 361.025 151.029 367.745 151.029 376.025 Z"
        fill="#ffc34d"/>
    <path
        id="path_25"
        d="M 470.569 361.025 L 462.949 391.025 L 376.029 391.025 C 367.749 391.025 361.029 384.305 361.029 376.025 C 361.029 367.745 367.749 361.025 376.029 361.025 Z"
        fill="#ff9933"/>
</svg>
