<svg
    xmlns="http://www.w3.org/2000/svg"
    viewBox="0 0 512 512"
    id="vector">
    <path
        id="path"
        d="M 345.432 242.139 C 495.709 216.147 480.569 68.253 480.569 68.253 C 382.481 55.637 323.248 99.621 297.974 177.149 L 285.375 217.129 L 314.024 239.878 Z"
        fill="#69da61"/>
    <path
        id="path_1"
        d="M 480.569 68.253 C 414.854 59.801 366.582 76.757 334.275 112.18 C 362.464 94.94 398.398 87.322 442.57 91.601 C 447.638 92.092 451.526 96.293 451.598 101.384 C 451.894 122.424 448.618 176.933 410.642 218.396 C 490.821 168.453 480.569 68.253 480.569 68.253 Z"
        fill="#5ab161"/>
    <path
        id="path_2"
        d="M 162.317 8 C 162.317 8 103.235 145.286 232.887 221.439 C 232.887 221.439 295.383 241.854 303.859 226.221 C 357.945 126.461 272.482 7.781 162.317 8 Z"
        fill="#a8ffa9"/>
    <path
        id="path_3"
        d="M 203.424 32.719 C 234.517 36.233 263.014 49.13 286.112 68.047 C 257.021 32.183 212.202 7.901 162.317 8 C 162.317 8 111.948 125.052 206.301 202.945 C 160.492 146.318 171.747 78.828 180.395 48.256 C 183.255 38.144 192.982 31.539 203.424 32.719 Z"
        fill="#85eda2"/>
    <path
        id="path_4"
        d="M 129.561 376.67 M 30.995 376.67 C 30.995 355.858 37.587 335.572 49.819 318.734 C 62.052 301.897 79.309 289.359 99.102 282.928 C 118.896 276.497 140.226 276.497 160.02 282.928 C 179.813 289.359 197.07 301.897 209.303 318.734 C 221.535 335.572 228.127 355.858 228.127 376.67 C 228.127 397.482 221.535 417.768 209.303 434.606 C 197.07 451.443 179.813 463.981 160.02 470.412 C 140.226 476.843 118.896 476.843 99.102 470.412 C 79.309 463.981 62.052 451.443 49.819 434.606 C 37.587 417.768 30.995 397.482 30.995 376.67"
        fill="#ff5872"/>
    <path
        id="path_5"
        d="M 129.561 278.103 C 120.773 278.103 112.256 279.259 104.147 281.417 C 113.251 310.256 132.909 334.408 158.6 349.327 C 163.983 352.453 166.348 358.916 164.23 364.769 C 152.504 397.177 155.182 434.132 173.076 465.126 C 205.509 449.141 227.881 415.85 228.125 377.305 C 228.469 322.89 183.978 278.103 129.561 278.103 Z"
        fill="#db4968"/>
    <path
        id="path_6"
        d="M 347.394 306.868 M 248.828 306.868 C 248.762 286.014 255.316 265.667 267.542 248.772 C 279.768 231.877 297.046 219.29 316.876 212.833 C 336.706 206.376 358.082 206.376 377.912 212.833 C 397.742 219.29 415.02 231.877 427.246 248.772 C 439.472 265.667 446.026 286.014 445.96 306.868 C 446.026 327.722 439.472 348.069 427.246 364.964 C 415.02 381.859 397.742 394.446 377.912 400.903 C 358.082 407.36 336.706 407.36 316.876 400.903 C 297.046 394.446 279.768 381.859 267.542 364.964 C 255.316 348.069 248.762 327.722 248.828 306.868"
        fill="#ff5872"/>
    <path
        id="path_7"
        d="M 333.222 303.874 C 327.914 300.913 325.569 294.454 327.834 288.814 C 337.982 263.542 338.916 235.392 330.78 209.703 C 282.813 217.846 246.641 260.637 248.931 311.429 C 251.283 363.604 294.689 405.185 346.916 405.432 C 363.305 405.51 378.771 401.586 392.393 394.583 C 388.775 355.524 365.841 322.069 333.222 303.874 Z"
        fill="#db4968"/>
    <path
        id="path_8"
        d="M 218.959 245.147 M 120.393 245.147 C 120.393 224.335 126.985 204.049 139.217 187.211 C 151.45 170.374 168.707 157.836 188.5 151.405 C 208.294 144.974 229.624 144.974 249.418 151.405 C 269.211 157.836 286.468 170.374 298.701 187.211 C 310.933 204.049 317.525 224.335 317.525 245.147 C 317.525 271.278 307.133 296.366 288.656 314.844 C 270.178 333.321 245.09 343.713 218.959 343.713 C 192.828 343.713 167.74 333.321 149.262 314.844 C 130.785 296.366 120.393 271.278 120.393 245.147"
        fill="#ff5872"/>
    <path
        id="path_9"
        d="M 133.359 263.908 C 133.359 209.471 177.489 165.342 231.925 165.342 C 261.464 165.342 287.964 178.34 306.029 198.923 C 289.464 167.784 256.69 146.58 218.959 146.58 C 164.522 146.58 120.393 190.71 120.393 245.146 C 120.393 270.044 129.629 292.781 144.855 310.131 C 137.521 296.345 133.359 280.614 133.359 263.908 Z"
        fill="#ff7f90"/>
    <path
        id="path_10"
        d="M 276.694 405.434 M 178.128 405.434 C 178.128 384.622 184.72 364.336 196.952 347.498 C 209.185 330.661 226.442 318.123 246.235 311.692 C 266.029 305.261 287.359 305.261 307.153 311.692 C 326.946 318.123 344.203 330.661 356.436 347.498 C 368.668 364.336 375.26 384.622 375.26 405.434 C 375.26 431.565 364.868 456.653 346.391 475.131 C 327.913 493.608 302.825 504 276.694 504 C 250.563 504 225.475 493.608 206.997 475.131 C 188.52 456.653 178.128 431.565 178.128 405.434"
        fill="#ff5872"/>
    <path
        id="path_11"
        d="M 188.071 420.022 C 188.071 368.331 229.975 326.427 281.666 326.427 C 330.929 326.427 371.303 364.487 374.987 412.807 C 379.239 355.354 333.812 306.868 276.695 306.868 C 222.258 306.868 178.129 350.998 178.129 405.434 C 178.129 430.736 187.667 453.808 203.338 471.26 C 193.687 456.54 188.071 438.938 188.071 420.022 Z"
        fill="#ff7f90"/>
    <path
        id="path_12"
        d="M 363.045 230.749 C 358.724 229.869 354.49 232.653 353.604 236.983 C 352.718 241.311 355.509 245.539 359.838 246.424 C 388.377 252.264 409.092 277.684 409.092 306.867 C 409.092 311.285 412.674 314.867 417.092 314.867 C 421.51 314.867 425.092 311.285 425.092 306.867 C 425.092 270.119 398.997 238.106 363.045 230.749 Z"
        fill="#231f20"/>
    <path
        id="path_13"
        d="M 101.286 331.45 L 96.264 331.45 L 96.264 326.427 C 96.264 322.009 92.682 318.427 88.264 318.427 C 83.846 318.427 80.264 322.009 80.264 326.427 L 80.264 331.45 L 75.24 331.45 C 70.822 331.45 67.24 335.032 67.24 339.45 C 67.24 343.868 70.822 347.45 75.24 347.45 L 80.263 347.45 L 80.263 352.473 C 80.263 356.891 83.845 360.473 88.263 360.473 C 92.681 360.473 96.263 356.891 96.263 352.473 L 96.263 347.45 L 101.285 347.45 C 105.703 347.45 109.285 343.868 109.285 339.45 C 109.285 335.032 105.704 331.45 101.286 331.45 Z"
        fill="#231f20"/>
    <path
        id="path_14"
        d="M 204.175 201.71 L 199.152 201.71 L 199.152 196.687 C 199.152 192.269 195.57 188.687 191.152 188.687 C 186.734 188.687 183.152 192.269 183.152 196.687 L 183.152 201.71 L 178.13 201.71 C 173.712 201.71 170.13 205.292 170.13 209.71 C 170.13 214.128 173.712 217.71 178.13 217.71 L 183.152 217.71 L 183.152 222.733 C 183.152 227.151 186.734 230.733 191.152 230.733 C 195.57 230.733 199.152 227.151 199.152 222.733 L 199.152 217.71 L 204.175 217.71 C 208.593 217.71 212.175 214.128 212.175 209.71 C 212.175 205.292 208.593 201.71 204.175 201.71 Z"
        fill="#231f20"/>
    <path
        id="path_15"
        d="M 326.501 361.659 L 321.479 361.659 L 321.479 356.637 C 321.479 352.219 317.897 348.637 313.479 348.637 C 309.061 348.637 305.479 352.219 305.479 356.637 L 305.479 361.659 L 300.456 361.659 C 296.038 361.659 292.456 365.241 292.456 369.659 C 292.456 374.077 296.038 377.659 300.456 377.659 L 305.479 377.659 L 305.479 382.682 C 305.479 387.1 309.061 390.682 313.479 390.682 C 317.897 390.682 321.479 387.1 321.479 382.682 L 321.479 377.659 L 326.501 377.659 C 330.919 377.659 334.501 374.077 334.501 369.659 C 334.501 365.241 330.919 361.659 326.501 361.659 Z"
        fill="#231f20"/>
    <path
        id="path_16"
        d="M 245.045 303.71 C 240.702 304.559 237.922 308.795 238.765 313.109 C 239.768 317.753 244.179 320.238 248.175 319.389 C 252.433 318.557 255.317 314.399 254.455 309.99 C 253.604 305.668 249.361 302.83 245.045 303.71 Z"
        fill="#231f20"/>
    <path
        id="path_17"
        d="M 482.492 130.312 C 491.341 96.313 488.646 68.602 488.527 67.439 C 488.149 63.743 485.275 60.793 481.589 60.319 C 438.183 54.736 400.535 59.79 369.693 75.34 C 365.748 77.329 364.162 82.14 366.151 86.085 C 368.14 90.029 372.95 91.613 376.896 89.627 C 403.288 76.319 435.574 71.549 472.942 75.421 C 473.186 84.966 472.74 104.252 467.006 126.283 C 456.609 166.237 434.43 195.989 401.051 214.783 C 384.196 204.942 364.457 199.715 343.988 200.359 C 356.493 179.262 387.172 134.853 431.618 118.944 C 435.777 117.455 437.942 112.876 436.454 108.715 C 434.965 104.556 430.384 102.391 426.225 103.879 C 366.238 125.35 330.691 190.265 324.279 202.828 C 324.225 202.84 322.291 203.278 322.155 203.311 C 328.75 181.942 330.427 159.022 326.234 135.665 C 332.694 125.793 340.05 117.022 348.135 109.561 C 351.382 106.565 351.585 101.503 348.588 98.256 C 345.591 95.008 340.529 94.806 337.283 97.803 C 331.535 103.108 326.137 109.004 321.116 115.4 C 299.849 50.492 236.246 0 162.301 0 C 159.111 0.006 156.229 1.907 154.968 4.838 C 154.597 5.699 145.845 26.287 142.322 56.11 C 137.969 92.962 143.67 127.741 158.807 157.229 C 122.122 182.407 104.728 227.484 115.585 271.018 C 63.669 277.802 22.996 322.202 22.996 376.669 C 22.996 435.43 70.801 483.235 129.561 483.235 C 150.902 483.235 171.148 477.087 188.633 465.378 C 207.838 493.502 240.145 512 276.694 512 C 334.858 512 382.28 465.159 383.238 407.22 C 424.458 392.443 453.961 353.256 453.961 306.868 C 453.961 273.922 438.931 244.422 415.369 224.859 C 448.703 203.85 471.798 171.405 482.492 130.312 Z M 172.634 149.16 C 159.136 122.602 154.265 92.138 158.155 58.482 C 160.406 39.008 165.161 23.577 167.801 16.094 C 256.703 19.336 328.272 104.302 309.45 188.814 C 295.996 167.198 274.549 150.287 248.693 142.794 C 247.1 87.256 211.079 54.345 209.511 52.942 C 206.219 49.994 201.161 50.275 198.215 53.568 C 195.269 56.86 195.548 61.918 198.841 64.864 C 199.164 65.153 229.605 92.967 232.524 139.439 C 212.567 136.904 191.634 139.988 172.634 149.16 Z M 180.587 451.507 C 165.544 461.819 148.035 467.236 129.562 467.236 C 79.624 467.236 38.997 426.608 38.997 376.67 C 38.997 329.182 75.314 290.917 120.733 286.536 C 132.771 315.129 156.961 337.593 187.577 347.007 C 167.336 377.89 164.343 417.616 180.587 451.507 Z M 276.694 496 C 236.876 496 201.238 469.759 189.801 430.974 C 178.651 392.942 193.557 353.247 224.552 331.373 C 228.162 328.826 229.025 323.835 226.478 320.225 C 223.93 316.615 218.94 315.752 215.33 318.299 C 209.125 322.675 203.221 327.907 198.244 333.318 C 167.806 326.172 143.729 303.911 133.622 275.491 C 116.94 228.584 141.449 178.176 185.822 160.86 C 226.16 144.95 272.005 160.17 295.249 196.388 C 315.749 228.351 313.99 269.689 291.117 299.842 C 286.505 299.223 281.46 298.869 276.694 298.869 C 272.276 298.869 268.694 302.451 268.694 306.869 C 268.694 311.287 272.276 314.869 276.694 314.869 C 326.723 314.869 367.26 355.601 367.26 405.434 C 367.26 455.372 326.633 496 276.694 496 Z M 437.961 306.868 C 437.961 344.56 415.023 376.746 382.207 390.485 C 376.484 349.891 347.766 315.878 308.064 303.576 C 323.761 279.653 329.68 249.284 322.481 219.788 C 380.142 203.192 437.961 246.774 437.961 306.868 Z"
        fill="#231f20"/>
</svg>
