<svg
    xmlns="http://www.w3.org/2000/svg"
    viewBox="0 0 128 128"
    id="vector">
    <path
        id="path_9"
        d="M 6.5 69.876 C 6.5 62.5 8 55.313 14.875 51 C 31.25 42.317 38.885 57.477 52.917 49.583 C 65.833 42.317 71.937 24.192 91.125 24.192 C 110.313 24.192 121.5 37.333 121.5 51.833 C 121.5 66.333 114.84 80.977 92.337 79.072 C 78.5 78 70.337 103.808 49.337 103.808 C 28.337 103.808 6.5 92.251 6.5 69.876 Z"
        fill="#72bdf6"/>
    <path
        id="path_10"
        d="M 98.055 77.442 C 97.083 77.491 96.071 77.5 95.049 77.474 C 94.679 77.462 94.314 77.568 94.008 77.777 C 93.702 77.985 93.47 78.286 93.345 78.634 C 93.22 78.983 93.209 79.363 93.314 79.718 C 93.419 80.073 93.633 80.387 93.927 80.612 C 94.221 80.838 94.579 80.965 94.949 80.974 C 95.358 80.985 95.766 80.991 96.169 80.991 C 96.869 80.991 97.557 80.974 98.229 80.94 C 98.692 80.915 99.127 80.708 99.437 80.363 C 99.747 80.019 99.909 79.565 99.885 79.102 C 99.862 78.639 99.656 78.204 99.313 77.892 C 98.969 77.581 98.516 77.418 98.053 77.44 Z"
        fill="#120e30"/>
    <path
        id="path_11"
        d="M 91.125 22.442 C 78.105 22.442 70.884 30.167 63.9 37.642 C 60.087 41.72 56.486 45.572 52.059 48.063 C 45.896 51.529 41.208 50.114 35.777 48.476 C 30.792 46.976 25.143 45.265 18.041 47.712 C 17.691 47.832 17.387 48.059 17.174 48.362 C 16.961 48.665 16.85 49.028 16.856 49.399 C 16.863 49.769 16.987 50.128 17.21 50.423 C 17.433 50.719 17.744 50.936 18.098 51.043 C 18.453 51.151 18.832 51.143 19.182 51.021 C 25.212 48.943 29.853 50.344 34.766 51.821 C 40.441 53.533 46.312 55.307 53.774 51.108 C 58.674 48.353 62.63 44.12 66.457 40.027 C 73.228 32.784 79.624 25.942 91.125 25.942 C 109.917 25.942 119.75 38.967 119.75 51.833 C 119.75 59.444 117.742 72.767 104.296 76.48 C 103.888 76.593 103.534 76.849 103.301 77.203 C 103.068 77.556 102.97 77.982 103.027 78.402 C 103.084 78.821 103.291 79.206 103.61 79.485 C 103.928 79.763 104.338 79.917 104.761 79.917 C 104.919 79.917 105.076 79.895 105.228 79.854 C 116.85 76.645 123.25 66.692 123.25 51.833 C 123.25 37.228 112.215 22.442 91.125 22.442 Z"
        fill="#120e30"/>
    <path
        id="path_12"
        d="M 88.22 77.721 C 83.025 79.087 78.596 83.508 73.906 88.188 C 67.072 95.007 60.006 102.058 49.333 102.058 C 28.917 102.058 8.25 91 8.25 69.876 C 8.25 62.752 9.809 57.889 13.15 54.571 C 13.414 54.311 13.588 53.974 13.649 53.609 C 13.709 53.243 13.652 52.868 13.485 52.537 C 13.319 52.207 13.052 51.937 12.722 51.768 C 12.393 51.598 12.018 51.538 11.653 51.595 C 11.287 51.652 10.948 51.824 10.686 52.085 C 5.366 57.364 4.75 64.768 4.75 69.876 C 4.75 93.301 27.178 105.558 49.333 105.558 C 61.454 105.558 69.383 97.646 76.378 90.665 C 80.724 86.328 84.83 82.231 89.111 81.105 C 89.475 81.017 89.801 80.814 90.041 80.527 C 90.281 80.24 90.423 79.884 90.445 79.51 C 90.468 79.137 90.37 78.766 90.167 78.452 C 89.963 78.138 89.664 77.897 89.314 77.766 C 88.963 77.634 88.58 77.619 88.22 77.721 Z"
        fill="#120e30"/>
    <path
        id="path_13"
        d="M 51.625 72.917 C 49.183 72.917 47.954 71.382 47.057 70.261 C 46.257 69.266 45.919 68.917 45.221 68.917 C 44.523 68.917 44.182 69.266 43.385 70.261 C 42.485 71.382 41.258 72.917 38.817 72.917 C 36.376 72.917 35.147 71.382 34.25 70.26 C 33.45 69.266 33.114 68.917 32.417 68.917 C 31.72 68.917 31.382 69.265 30.587 70.26 C 29.687 71.381 28.462 72.917 26.022 72.917 C 23.582 72.917 22.354 71.381 21.457 70.26 C 20.657 69.26 20.321 68.917 19.625 68.917 C 19.161 68.917 18.716 68.732 18.388 68.404 C 18.06 68.076 17.875 67.631 17.875 67.167 C 17.875 66.703 18.06 66.258 18.388 65.93 C 18.716 65.602 19.161 65.417 19.625 65.417 C 22.065 65.417 23.294 66.953 24.19 68.074 C 24.99 69.074 25.327 69.417 26.022 69.417 C 26.717 69.417 27.058 69.069 27.853 68.074 C 28.753 66.953 29.977 65.417 32.417 65.417 C 34.857 65.417 36.086 66.952 36.983 68.073 C 37.783 69.073 38.12 69.417 38.817 69.417 C 39.514 69.417 39.855 69.068 40.652 68.073 C 41.552 66.952 42.779 65.417 45.221 65.417 C 47.663 65.417 48.892 66.952 49.789 68.073 C 50.589 69.073 50.927 69.417 51.625 69.417 C 52.089 69.417 52.534 69.602 52.862 69.93 C 53.19 70.258 53.375 70.703 53.375 71.167 C 53.375 71.631 53.19 72.076 52.862 72.404 C 52.534 72.732 52.089 72.917 51.625 72.917 Z"
        fill="#120e30"/>
    <path
        id="path_14"
        d="M 59 84.917 C 56.558 84.917 55.329 83.382 54.432 82.261 C 53.632 81.266 53.294 80.917 52.596 80.917 C 51.898 80.917 51.557 81.266 50.76 82.261 C 49.86 83.382 48.633 84.917 46.192 84.917 C 43.751 84.917 42.522 83.382 41.625 82.26 C 40.825 81.266 40.489 80.917 39.792 80.917 C 39.095 80.917 38.757 81.265 37.962 82.26 C 37.062 83.381 35.837 84.917 33.397 84.917 C 30.957 84.917 29.729 83.381 28.832 82.26 C 28.032 81.26 27.696 80.917 27 80.917 C 26.536 80.917 26.091 80.732 25.763 80.404 C 25.435 80.076 25.25 79.631 25.25 79.167 C 25.25 78.703 25.435 78.258 25.763 77.93 C 26.091 77.602 26.536 77.417 27 77.417 C 29.44 77.417 30.669 78.953 31.565 80.074 C 32.365 81.074 32.702 81.417 33.397 81.417 C 34.092 81.417 34.433 81.069 35.228 80.074 C 36.128 78.953 37.352 77.417 39.792 77.417 C 42.232 77.417 43.461 78.952 44.358 80.073 C 45.158 81.073 45.495 81.417 46.192 81.417 C 46.889 81.417 47.23 81.068 48.027 80.073 C 48.927 78.952 50.154 77.417 52.596 77.417 C 55.038 77.417 56.267 78.952 57.164 80.073 C 57.964 81.073 58.302 81.417 59 81.417 C 59.464 81.417 59.909 81.602 60.237 81.93 C 60.565 82.258 60.75 82.703 60.75 83.167 C 60.75 83.631 60.565 84.076 60.237 84.404 C 59.909 84.732 59.464 84.917 59 84.917 Z"
        fill="#120e30"/>
    <path
        id="path_15"
        d="M 111.458 49.417 C 109.017 49.417 107.788 47.882 106.89 46.761 C 106.09 45.761 105.752 45.417 105.054 45.417 C 104.356 45.417 104.015 45.766 103.218 46.761 C 102.318 47.882 101.092 49.417 98.65 49.417 C 96.208 49.417 94.98 47.882 94.083 46.761 C 93.283 45.761 92.947 45.417 92.25 45.417 C 91.553 45.417 91.215 45.765 90.42 46.76 C 89.52 47.881 88.296 49.417 85.856 49.417 C 83.416 49.417 82.187 47.881 81.291 46.76 C 80.491 45.765 80.154 45.417 79.458 45.417 C 78.994 45.417 78.549 45.232 78.221 44.904 C 77.893 44.576 77.708 44.131 77.708 43.667 C 77.708 43.203 77.893 42.758 78.221 42.43 C 78.549 42.102 78.994 41.917 79.458 41.917 C 81.899 41.917 83.127 43.453 84.024 44.574 C 84.824 45.574 85.16 45.917 85.856 45.917 C 86.552 45.917 86.891 45.569 87.686 44.574 C 88.586 43.453 89.81 41.917 92.25 41.917 C 94.69 41.917 95.92 43.452 96.817 44.574 C 97.617 45.568 97.953 45.917 98.65 45.917 C 99.347 45.917 99.689 45.568 100.486 44.573 C 101.386 43.452 102.612 41.917 105.054 41.917 C 107.496 41.917 108.725 43.452 109.623 44.573 C 110.423 45.568 110.76 45.917 111.458 45.917 C 111.922 45.917 112.367 46.102 112.695 46.43 C 113.023 46.758 113.208 47.203 113.208 47.667 C 113.208 48.131 113.023 48.576 112.695 48.904 C 112.367 49.232 111.922 49.417 111.458 49.417 Z"
        fill="#120e30"/>
</svg>
