<?xml version="1.0" encoding="UTF-8" standalone="no"?>
<!DOCTYPE svg PUBLIC "-//W3C//DTD SVG 1.1//EN" "http://www.w3.org/Graphics/SVG/1.1/DTD/svg11.dtd">
<svg width="100%" height="100%" viewBox="0 0 1729 1729" version="1.1" xmlns="http://www.w3.org/2000/svg" xmlns:xlink="http://www.w3.org/1999/xlink" xml:space="preserve" xmlns:serif="http://www.serif.com/" style="fill-rule:evenodd;clip-rule:evenodd;stroke-linejoin:round;stroke-miterlimit:2;">
    <g transform="matrix(4.16667,0,0,4.16667,0.266683,594.177)">
        <path d="M64.75,60.427L62.5,60.427L62.5,124.509C62.5,126.61 64.203,128.313 66.305,128.313C68.406,128.313 70.11,126.61 70.11,124.509L70.11,65.787C70.11,62.827 67.71,60.427 64.75,60.427Z" style="fill:rgb(1,60,91);fill-rule:nonzero;"/>
        <path d="M28.032,90.661C13.197,87.483 9.729,83.918 9.729,77.561L9.729,77.367C9.729,71.299 15.316,66.483 24.083,66.483C30.344,66.483 35.835,68.217 41.518,72.359C42.192,72.84 42.867,73.033 43.734,73.033C45.756,73.033 47.394,71.396 47.394,69.373C47.394,67.928 46.527,66.868 45.756,66.289C39.591,61.859 33.138,59.643 24.275,59.643C11.463,59.643 2.12,67.446 2.12,78.042L2.12,78.235C2.12,89.313 9.248,94.322 24.756,97.694C38.918,100.68 42.289,104.243 42.289,110.505L42.289,110.697C42.289,117.345 36.316,122.161 27.261,122.161C18.688,122.161 12.33,119.56 5.973,114.166C5.491,113.684 4.624,113.299 3.66,113.299C1.637,113.299 0,114.936 0,117.055C0,118.308 0.578,119.367 1.445,119.946C8.958,125.918 17.146,129 26.973,129C40.362,129 49.995,121.486 49.995,109.928L49.995,109.734C49.995,99.427 43.059,93.937 28.032,90.661Z" style="fill:rgb(1,60,91);fill-rule:nonzero;"/>
        <path d="M217.374,121.005L182.936,121.005L182.936,65.967C182.936,63.007 180.536,60.607 177.576,60.607L175.326,60.607L175.326,128.037L217.374,128.037C219.315,128.037 220.89,126.463 220.89,124.521C220.89,122.579 219.315,121.005 217.374,121.005Z" style="fill:rgb(1,60,91);fill-rule:nonzero;"/>
        <path d="M372.553,121.101L335.236,121.101L335.236,95.979L361.285,95.979C363.2,95.979 364.753,94.426 364.753,92.511L364.753,92.51C364.753,90.595 363.2,89.042 361.285,89.042L335.236,89.042L335.236,67.542L372.071,67.542C373.987,67.542 375.54,65.99 375.54,64.074C375.54,62.159 373.987,60.607 372.071,60.607L327.626,60.607L327.626,128.037L372.553,128.037C374.468,128.037 376.021,126.484 376.021,124.569C376.021,122.654 374.468,121.101 372.553,121.101Z" style="fill:rgb(1,60,91);fill-rule:nonzero;"/>
        <path d="M306.499,65.967L306.499,114.647L266.47,63.725C264.921,61.756 262.556,60.607 260.049,60.607L256.89,60.607L256.89,124.328C256.89,126.377 258.549,128.037 260.597,128.037C262.646,128.037 264.307,126.377 264.307,124.328L264.307,72.744L305.396,124.924C306.944,126.889 309.309,128.037 311.812,128.037L313.917,128.037L313.917,60.607L311.859,60.607C308.899,60.607 306.499,63.007 306.499,65.967Z" style="fill:rgb(1,60,91);fill-rule:nonzero;"/>
        <path d="M235.291,60.607L233.041,60.607L233.041,124.232C233.041,126.333 234.745,128.037 236.847,128.037C238.948,128.037 240.651,126.333 240.651,124.232L240.651,65.967C240.651,63.007 238.251,60.607 235.291,60.607Z" style="fill:rgb(1,60,91);fill-rule:nonzero;"/>
        <path d="M80.927,95.97L102.919,124.236L105.87,128.029L115.112,128.029L89.866,95.97L80.927,95.97Z" style="fill:rgb(1,60,91);fill-rule:nonzero;"/>
        <path d="M140.849,88.089L119.146,60.529L110.232,60.529L137.008,94.945L137.008,124.183C137.008,126.311 138.733,128.037 140.861,128.037C142.989,128.037 144.715,126.311 144.715,124.183L144.715,94.911L171.465,60.529L162.551,60.529L140.849,88.089Z" style="fill:rgb(1,60,91);fill-rule:nonzero;"/>
        <path d="M101.319,60.529C90.197,71.44 80.975,83.34 73.802,95.97L81.657,95.97C89.46,83.075 99.421,71.163 111.159,60.529L101.319,60.529ZM414.896,60.615L405.043,60.615C369.14,28.038 316.559,7.443 258.058,7.443C203.092,7.443 153.35,25.623 117.758,54.84L107.394,54.84C109.906,52.592 112.494,50.386 115.176,48.236C153.373,17.617 204.117,0.755 258.058,0.755C311.999,0.755 362.742,17.617 400.939,48.236C405.882,52.198 410.533,56.331 414.896,60.615Z" style="fill:rgb(87,201,231);fill-rule:nonzero;"/>
    </g>
</svg>
