<svg
    xmlns="http://www.w3.org/2000/svg"
    viewBox="0 0 512 512"
    id="vector">
    <path
        id="path"
        d="M 385.819 37.091 C 349.937 37.091 317.787 54.087 296.03 80.941 C 274.272 54.087 242.122 37.091 206.241 37.091 C 140.692 37.091 87.547 93.8 87.547 163.761 C 87.547 224.901 143.412 328.769 267.139 392.363 C 275.157 396.484 283.462 400.436 292.053 404.193 C 294.584 405.3 297.478 405.3 300.009 404.193 C 308.6 400.437 316.904 396.484 324.923 392.363 C 448.635 328.769 504.5 224.901 504.5 163.761 C 504.5 93.8 451.367 37.091 385.819 37.091 Z"
        fill="#fc5a95"/>
    <path
        id="path_1"
        d="M 504.5 163.757 C 504.5 224.905 448.637 328.765 324.923 392.365 C 316.9 396.485 308.598 400.439 300.003 404.195 C 297.473 405.3 294.58 405.3 292.05 404.194 C 283.461 400.439 275.153 396.485 267.14 392.366 C 266.718 392.155 266.306 391.934 265.894 391.713 C 388.733 328.063 444.215 224.696 444.215 163.758 C 444.215 104.921 406.638 55.458 355.688 41.221 C 365.303 38.528 375.401 37.091 385.82 37.091 C 451.37 37.09 504.5 93.797 504.5 163.757 Z"
        fill="#fb3a82"/>
    <path
        id="path_2"
        d="M 221.211 211.544 C 195.502 211.544 172.467 223.721 156.877 242.962 C 141.288 223.721 118.252 211.544 92.544 211.544 C 45.579 211.544 7.5 252.175 7.5 302.302 C 7.5 346.108 47.527 420.529 136.176 466.094 C 141.567 468.865 147.138 471.529 152.891 474.071 C 155.425 475.191 158.329 475.191 160.863 474.071 C 166.615 471.529 172.187 468.865 177.578 466.094 C 266.218 420.529 306.245 346.108 306.245 302.302 C 306.245 252.176 268.176 211.544 221.211 211.544 Z"
        fill="#fca5cd"/>
    <path
        id="path_3"
        d="M 306.247 302.297 C 306.247 346.103 266.218 420.524 177.58 466.089 C 172.186 468.86 166.613 471.524 160.86 474.065 C 158.324 475.185 155.42 475.184 152.885 474.063 C 147.139 471.522 141.567 468.859 136.175 466.089 C 134.517 465.235 132.879 464.381 131.262 463.497 C 216.464 417.751 255.005 345.28 255.005 302.297 C 255.005 261.696 230.037 227.334 195.585 215.739 C 203.673 213.006 212.274 211.539 221.206 211.539 C 268.177 211.54 306.247 252.171 306.247 302.297 Z"
        fill="#fc7cb6"/>
    <path
        id="path_4"
        d="M 417.213 317.057 C 389.911 343.985 357.706 367.078 321.493 385.693 C 313.536 389.783 305.296 393.695 297.003 397.321 C 296.384 397.592 295.675 397.592 295.056 397.321 C 289.865 395.052 284.691 392.664 279.603 390.199 C 280.174 389.414 280.731 388.638 281.272 387.874 C 301.909 358.732 313.745 327.543 313.745 302.303 C 313.745 275.681 303.881 250.756 285.969 232.119 C 283.099 229.133 278.351 229.038 275.365 231.909 C 272.378 234.78 272.284 239.527 275.154 242.514 C 290.367 258.343 298.745 279.577 298.745 302.304 C 298.745 347.424 255.077 417.825 174.15 459.426 C 168.84 462.155 163.35 464.775 157.833 467.213 C 157.226 467.481 156.529 467.481 155.923 467.213 C 150.405 464.775 144.915 462.154 139.606 459.426 C 58.671 417.824 15 347.423 15 302.302 C 15 256.393 49.786 219.044 92.544 219.044 C 114.979 219.044 136.303 229.483 151.049 247.684 C 152.473 249.442 154.614 250.463 156.877 250.463 C 159.14 250.463 161.28 249.442 162.704 247.685 C 177.451 229.484 198.776 219.045 221.211 219.045 C 231.435 219.045 241.375 221.152 250.753 225.308 C 254.538 226.987 258.969 225.276 260.648 221.489 C 262.326 217.702 260.616 213.272 256.829 211.594 C 245.525 206.585 233.541 204.045 221.21 204.045 C 197.074 204.045 174.065 214.019 156.876 231.681 C 141.972 216.367 122.692 206.838 102.097 204.574 C 97.481 189.955 95.045 175.895 95.045 163.762 C 95.045 98.052 144.926 44.592 206.239 44.592 C 238.45 44.592 269.053 59.562 290.201 85.663 C 291.625 87.421 293.766 88.442 296.028 88.442 C 298.29 88.442 300.431 87.421 301.856 85.663 C 319.929 63.357 344.873 49.094 372.093 45.502 C 376.199 44.96 379.09 41.192 378.548 37.085 C 378.006 32.978 374.239 30.09 370.131 30.63 C 341.93 34.351 315.923 48.052 296.027 69.5 C 272.383 44.033 240.119 29.591 206.239 29.591 C 136.655 29.591 80.045 89.779 80.045 163.761 C 80.045 176.23 82.164 189.828 86.337 204.27 C 38.192 207.672 0 250.337 0 302.302 C 0 327.543 11.836 358.732 32.474 387.873 C 49.416 411.796 80.566 445.944 132.748 472.765 C 138.318 475.627 144.075 478.374 149.86 480.931 C 152.089 481.916 154.483 482.409 156.877 482.409 C 159.271 482.409 161.665 481.916 163.895 480.931 C 169.68 478.375 175.437 475.627 181.007 472.765 C 223.401 450.972 251.912 424.343 270.2 402.291 C 276.381 405.34 282.699 408.289 289.046 411.064 C 291.265 412.035 293.647 412.52 296.029 412.52 C 298.411 412.52 300.794 412.035 303.012 411.064 C 311.59 407.314 320.115 403.266 328.349 399.033 C 365.917 379.721 399.359 355.734 427.745 327.736 C 430.694 324.827 430.727 320.079 427.818 317.13 C 424.911 314.181 420.163 314.149 417.213 317.057 Z"
        fill="#000000"/>
    <path
        id="path_5"
        d="M 481.454 76.226 C 461.868 52.053 434.831 36.058 405.325 31.188 C 401.245 30.516 397.379 33.28 396.704 37.367 C 396.03 41.454 398.796 45.314 402.883 45.988 C 456.539 54.843 497 105.474 497 163.761 C 497 201.675 475.367 250.108 439.131 293.321 C 436.47 296.495 436.885 301.225 440.059 303.887 C 441.464 305.065 443.173 305.64 444.874 305.64 C 447.015 305.64 449.142 304.728 450.625 302.959 C 489.056 257.128 512 205.092 512 163.761 C 512 131.625 501.152 100.538 481.454 76.226 Z"
        fill="#000000"/>
    <path
        id="path_6"
        d="M 101.873 343.228 L 101.873 354.228 C 101.873 358.37 105.231 361.728 109.373 361.728 C 113.515 361.728 116.873 358.37 116.873 354.228 L 116.873 343.228 C 116.873 339.086 113.515 335.728 109.373 335.728 C 105.231 335.728 101.873 339.086 101.873 343.228 Z"
        fill="#000000"/>
    <path
        id="path_7"
        d="M 196.873 343.228 L 196.873 354.228 C 196.873 358.37 200.231 361.728 204.373 361.728 C 208.515 361.728 211.873 358.37 211.873 354.228 L 211.873 343.228 C 211.873 339.086 208.515 335.728 204.373 335.728 C 200.231 335.728 196.873 339.086 196.873 343.228 Z"
        fill="#000000"/>
    <path
        id="path_8"
        d="M 171.135 372.895 C 169.834 379.723 163.836 384.678 156.872 384.678 C 149.908 384.678 143.91 379.722 142.608 372.894 C 141.833 368.825 137.908 366.153 133.837 366.931 C 129.768 367.706 127.098 371.634 127.874 375.702 C 130.521 389.594 142.717 399.677 156.872 399.677 C 171.027 399.677 183.223 389.594 185.87 375.701 C 186.645 371.632 183.975 367.705 179.906 366.93 C 175.843 366.158 171.911 368.826 171.135 372.895 Z"
        fill="#000000"/>
</svg>
