<svg
    id="vector"
    xmlns="http://www.w3.org/2000/svg"
    viewBox="0 0 128 128">
    <path
        d="M12.971,57.345c.018-6.632-.016-13.263-.067-19.894q-.033-4.238-.018-8.474c.005-2.334.059-4.668.1-7,0-.162-.093-.392.1-.476.14-.063.275.114.4.2a31.022,31.022,0,0,0,7.369,3.622,26.4,26.4,0,0,0,8.464,1.207,33.245,33.245,0,0,1,3.529.088A6.156,6.156,0,0,1,35,27.166a4.7,4.7,0,0,1,2.009,2,1.259,1.259,0,0,1,.121.568c.09,1.291.189,2.582.262,3.874a.784.784,0,0,0,.472.727,9.3,9.3,0,0,0,3.188.979,31.713,31.713,0,0,0,7.629-.054A118.6,118.6,0,0,0,61.2,32.82c4.056-.9,8.116-1.791,12.211-2.5a36.8,36.8,0,0,1,6.846-.614,14.284,14.284,0,0,1,4.461.669,5.528,5.528,0,0,1,3.725,3.633c.175.54.364,1.076.54,1.617.159.487.155.494.69.506.765.017,1.53.019,2.3.037a27.363,27.363,0,0,1,4.338.309,28.14,28.14,0,0,1,7.1,2.433,40.477,40.477,0,0,1,8.428,5.446,18.25,18.25,0,0,0,3.011,2.05.576.576,0,0,1,.342.694q-.637,4.991-.933,10.015Q113.9,63.225,114,69.349a31.745,31.745,0,0,0,1.574,8.707c.735,2.44,1.472,4.879,1.994,7.377a31.708,31.708,0,0,1,.623,8.717,29.142,29.142,0,0,1-1.27,6.628c-.023.075-.054.148-.074.223-.06.222-.191.211-.351.112s-.3-.188-.448-.281a78.757,78.757,0,0,0-9.767-5.295,36.048,36.048,0,0,0-8.868-2.686,33.48,33.48,0,0,0-5.039-.394,5.35,5.35,0,0,1-1.46-.132,1.222,1.222,0,0,1-.96-1.737,6.558,6.558,0,0,1,1.223-2.063c.127-.164.419-.335.332-.5-.107-.2-.425-.088-.648-.084a28.042,28.042,0,0,0-6.1.9C80,89.976,75.268,91.269,70.519,92.476c-4.141,1.053-8.3,2.016-12.46,3.01-3.832.916-7.621,2-11.429,3.01-2.709.72-5.416,1.446-8.166,2a13.751,13.751,0,0,1-4.5.307,6.344,6.344,0,0,1-1.928-.492,2.546,2.546,0,0,1-1.553-2.37,8.131,8.131,0,0,1,.446-2.773c.288-.916.611-1.821.913-2.733.124-.377.092-.423-.3-.35-1.329.249-2.654.522-3.983.771a47.269,47.269,0,0,1-10.932.985,26.373,26.373,0,0,1-3.329-.378c-.454-.08-.456-.091-.458-.572q-.018-3.266-.03-6.533c-.021-7.984-.022-15.969.059-23.954C12.889,60.717,12.937,59.031,12.971,57.345Zm74.98.467a1.01,1.01,0,0,0-.011-.175A19.575,19.575,0,0,0,84.5,50.284,21.587,21.587,0,0,0,60.43,43.376a24.332,24.332,0,0,0-7.855,4.975,23.022,23.022,0,0,0-7.978,16.9c-.031,1-.032,2-.078,3a29.4,29.4,0,0,1-4.5-.458c-.259-.041-.346-.172-.363-.433-.1-1.468-.224-2.933-.312-4.4a1.243,1.243,0,0,0-.389-.875,5.319,5.319,0,0,0-2.577-1.456,10,10,0,0,0-3.159-.154c-2.3.192-4.591.576-6.9.7a31.12,31.12,0,0,1-11.868-1.653c-.411-.139-.428-.125-.437.31-.035,1.588-.078,3.177-.088,4.765-.061,9.1-.049,18.206-.012,27.309,0,.582,0,.575.554.653A32.364,32.364,0,0,0,22.8,92.51c2.572-.3,5.11-.807,7.648-1.315q1.3-.259,2.6-.5c.548-.1.57-.073.381.481-.286.834-.579,1.666-.867,2.5a21.111,21.111,0,0,0-.944,3.273c-.281,1.623.223,2.372,1.829,2.678a10.168,10.168,0,0,0,3.454.046,61.017,61.017,0,0,0,6.369-1.412c4.133-1.084,8.251-2.224,12.391-3.277,3.609-.918,7.247-1.719,10.859-2.624,5.513-1.381,11.016-2.8,16.52-4.218a30.707,30.707,0,0,1,10.347-1.215c.17.014.413-.074.49.086s-.152.285-.261.41c-.619.709-1.287,1.375-1.855,2.129a5.381,5.381,0,0,0-.676,1.1c-.212.5-.157.617.392.688a9.564,9.564,0,0,0,1.174.048,32.486,32.486,0,0,1,7.857,1,45.219,45.219,0,0,1,9.816,3.9c1.791.936,3.542,1.942,5.265,3,.689.422.546.245.726-.314.006-.019.008-.039.013-.058a28.854,28.854,0,0,0,.3-12.657,76.812,76.812,0,0,0-2.008-7.614,31.041,31.041,0,0,1-1.672-9.1.569.569,0,0,0-.346-.549c-1.021-.584-2.027-1.195-3.058-1.762-4.547-2.5-9.294-4.37-14.558-4.615-.387-.018-.39-.046-.425-.475-.085-1.036-.167-2.072-.253-3.108-.037-.437-.04-.439-.481-.5-.757-.105-1.513-.221-2.272-.309-1.168-.135-2.332-.307-3.509-.342Q88,57.841,87.951,57.812Z"
        transform="translate(-7.179 -7.067)" style="fill:#f6a705" />
    <path
        d="M64.157,7.067c15.3.236,28.594,5.484,39.648,16.126A56.773,56.773,0,0,1,121,67.471a55.791,55.791,0,0,1-2.551,13.788c-.052.161-.078.449-.2.442-.186-.01-.14-.285-.2-.442a3.561,3.561,0,0,1-.036-2.448,53.464,53.464,0,0,0,1.931-17.41A55.963,55.963,0,0,0,76.381,9.532,53.941,53.941,0,0,0,60.773,8.285,55.307,55.307,0,0,0,26.149,23.1a15.1,15.1,0,0,0-1.227,1.185.86.86,0,0,1-1.029.312c-.18-.064-.458-.01-.523-.186-.074-.2.187-.314.318-.445A56.515,56.515,0,0,1,51.832,8.423a53.509,53.509,0,0,1,9.377-1.251C62.189,7.128,63.168,7.085,64.157,7.067Z"
        transform="translate(-7.179 -7.067)" style="fill:#f6aa0d" />
    <path
        d="M64.165,121.038c-15.366-.232-28.673-5.534-39.789-16.209a55.165,55.165,0,0,1-7.464-8.92c-.077-.114-.154-.227-.228-.343-.121-.188-.028-.242.153-.24.039,0,.078.005.117.006.894.015.886.022,1.412.756A55.538,55.538,0,0,0,51.948,118.58a53.264,53.264,0,0,0,15.372,1.253,55.991,55.991,0,0,0,40.742-21.246c.114-.144.188-.412.42-.35a2.024,2.024,0,0,1,.772.41c.066.056.026.145-.024.211-.118.156-.235.313-.358.466a56.71,56.71,0,0,1-32.5,20.377A58.012,58.012,0,0,1,64.165,121.038Z"
        transform="translate(-7.179 -7.067)" style="fill:#f6aa0d" />
    <path
        d="M94.416,34.771c-.611.124-.984-.223-1.382-.606A41.585,41.585,0,0,0,39.2,30.779c-.134.1-.27.313-.432.231s-.069-.324-.108-.492a.932.932,0,0,1,.485-1.066,42.719,42.719,0,0,1,55.515,4.78c.159.161.48.338.393.524C94.951,34.969,94.631,34.724,94.416,34.771Z"
        transform="translate(-7.179 -7.067)" style="fill:#f6aa0d" />
    <path
        d="M65.271,106.72a43.526,43.526,0,0,1-21.818-5.344c-.162-.089-.452-.14-.427-.332s.331-.14.5-.215a1.7,1.7,0,0,1,1.55.176,39.457,39.457,0,0,0,13.739,4.278A40.972,40.972,0,0,0,92.469,94.448a2.115,2.115,0,0,1,1.77-.461c.181.009.177.122.077.233s-.223.221-.336.33a42.377,42.377,0,0,1-21.606,11.379A37.754,37.754,0,0,1,65.271,106.72Z"
        transform="translate(-7.179 -7.067)" style="fill:#f6aa0d" />
    <path
        d="M11.318,85.156a.981.981,0,0,1-.295-.511,56.352,56.352,0,0,1-3.379-13.3A57.382,57.382,0,0,1,7.216,62,56.272,56.272,0,0,1,11.145,43.15a1.27,1.27,0,0,1,.225-.461c.143.164.056.359.071.539a10.182,10.182,0,0,1-.591,4.087A52.45,52.45,0,0,0,8.457,59.523a55.686,55.686,0,0,0,2.7,22.273,3.051,3.051,0,0,1,.166,1.036C11.31,83.585,11.318,84.339,11.318,85.156Z"
        transform="translate(-7.179 -7.067)" style="fill:#f6aa0d" />
    <path
        d="M55.172,18.524c-.274.046-.324-.169-.4-.345q-.481-1.105-.957-2.213c-.357-.828-.717-1.655-1.069-2.485-.19-.446-.186-.46.265-.519,1.059-.138.8-.33,1.226.721.327.819.644,1.642.965,2.463.043.11.082.221.133.327.024.05.071.124.109.125.092,0,.113-.084.127-.163q.182-1.042.365-2.084c.027-.155.057-.309.084-.463a1.454,1.454,0,0,0-.071-1.085c-.114-.183-.031-.285.182-.307,1.117-.115.817-.353,1.284.666.424.927.825,1.864,1.24,2.8.03.067.092.174.133.172.145-.01.084-.146.091-.227.088-1.114.169-2.229.253-3.343.037-.488.038-.488.534-.577l.058-.01c.975-.175.81-.08.718.666-.19,1.537-.351,3.078-.525,4.617-.08.709-.131.6-.655.67-.894.125-.708.248-1.112-.606-.335-.709-.661-1.423-.992-2.133-.031-.068-.059-.164-.144-.157s-.1.1-.118.181q-.246,1.3-.492,2.6c-.1.536-.1.538-.65.631C55.56,18.473,55.366,18.5,55.172,18.524Z"
        transform="translate(-7.179 -7.067)" style="fill:#f6aa0d" />
    <path
        d="M36.735,22.626q.744,1.235,1.485,2.469c.2.33.2.344-.12.535-.886.529-.653.554-1.148-.251q-1.2-1.953-2.386-3.918c-.215-.355-.214-.368.136-.576.3-.18.583-.5.917-.488s.58.371.857.585c.793.61,1.58,1.227,2.371,1.839.07.055.153.156.246.076.041-.035.031-.149.018-.222q-.262-1.446-.533-2.891c0-.019-.011-.038-.015-.057-.229-1.14-.176-1.237.866-1.725.157-.074.253-.067.337.083.038.068.083.133.124.2q1.284,2.11,2.566,4.221c.2.337.206.353-.108.539-.881.525-.656.56-1.153-.24-.31-.5-.607-1.008-.923-1.5-.1-.158-.147-.367-.35-.448l-.033-.089c-.013.02-.037.04-.036.059,0,.038.033.046.074.025a7.869,7.869,0,0,0,.275,1.9c.046.369.127.733.208,1.1a.409.409,0,0,1-.235.53,1.935,1.935,0,0,0-.35.215.37.37,0,0,1-.52-.04q-1.028-.831-2.077-1.637c-.147-.114-.261-.3-.492-.277v-.008Z"
        transform="translate(-7.179 -7.067)" style="fill:#f6aa0d" />
    <path
        d="M37.831,107.059c.867-.643,1.614-1.42,2.425-2.126a.648.648,0,0,0,.157-.308c.159-.465.162-.464.613-.213a2.691,2.691,0,0,0,.257.142c.272.11.309.286.235.563-.274,1.02-.527,2.047-.776,3.074-.042.172-.221.4-.037.513.106.064.252-.2.368-.328.7-.763,1.409-1.526,2.1-2.3a.41.41,0,0,1,.6-.11c.882.481.888.468.174,1.188q-1.593,1.606-3.184,3.216c-.325.326-.335.334-.732.1-.911-.544-.807-.242-.577-1.281.157-.707.326-1.411.484-2.118.016-.072.027-.186-.013-.22-.094-.083-.174.018-.242.077-.652.564-1.3,1.135-1.952,1.7-.415.355-.319.359-.8.079-.91-.531-.784-.269-.54-1.232.375-1.48.774-2.955,1.163-4.431.029-.113.06-.227.1-.337s.122-.137.228-.077c.272.156.544.31.817.465.227.128.1.305.057.463-.29.976-.585,1.95-.875,2.926-.05.168-.08.341-.119.512-.038.035-.071.085-.029.122S37.809,107.1,37.831,107.059Z"
        transform="translate(-7.179 -7.067)" style="fill:#f6aa0d" />
    <path
        d="M71.3,112.852c.071.8.246,1.584.378,2.375.088.53.079.541-.467.631-.652.107-.656.108-.765-.533-.208-1.215-.415-2.43-.613-3.647a1.692,1.692,0,0,0-.45-1.051c-.2-.187-.158-.247.134-.314,1.05-.239,1.051-.24,1.815.54.658.672,1.311,1.347,1.968,2.02.065.066.125.186.23.143.144-.059.074-.2.057-.305-.137-.83-.285-1.658-.428-2.488-.088-.512-.081-.519.42-.6.713-.12.709-.119.827.591.251,1.505.507,3.01.759,4.516.075.445.073.446-.368.527a1.585,1.585,0,0,0-.289.042.687.687,0,0,1-.817-.268c-.565-.6-1.152-1.173-1.736-1.752a2.7,2.7,0,0,0-.559-.514c-.029-.036-.061-.1-.109-.046C71.267,112.738,71.3,112.805,71.3,112.852Z"
        transform="translate(-7.179 -7.067)" style="fill:#f6aa0d" />
    <path
        d="M90.357,106.4c-.392-.812-.9-1.56-1.34-2.344-.322-.571-.323-.479.194-.783.581-.342.516-.43.906.239.78,1.337,1.567,2.67,2.349,4.006.222.379.218.382-.163.613a.92.92,0,0,0-.1.061.935.935,0,0,1-1.13.08c-.746-.387-1.528-.708-2.294-1.056-.125-.056-.25-.112-.377-.164-.072-.03-.159-.061-.209.018a.2.2,0,0,0,.02.16c.081.157.17.309.26.461.337.575.67,1.151,1.015,1.721.111.183.11.294-.086.429-.769.531-.764.538-1.244-.277-.606-1.03-1.219-2.056-1.814-3.093a1.592,1.592,0,0,0-.724-.731c-.294-.134-.28-.175.013-.366.884-.579.883-.577,1.846-.134.924.426,1.851.846,2.777,1.269.043.032.095.068.139.02S90.4,106.435,90.357,106.4Z"
        transform="translate(-7.179 -7.067)" style="fill:#f6aa0d" />
    <path
        d="M67.359,113.465a2.952,2.952,0,1,1-2.938-3A2.9,2.9,0,0,1,67.359,113.465Zm-2.975,1.713a1.742,1.742,0,0,0,.067-3.482,1.741,1.741,0,0,0-.067,3.482Z"
        transform="translate(-7.179 -7.067)" style="fill:#f6aa0d" />
    <path
        d="M67.645,17.78h-.176c-.529-.014-.525-.015-.692-.506-.3-.893-.065-.751-1.073-.783a.759.759,0,0,1-.117,0c-.763-.141-1.34.008-1.469.905a.319.319,0,0,1-.377.28c-1.387-.044-1.155.13-.727-.975.565-1.46,1.166-2.907,1.753-4.358.18-.447.182-.447.68-.442.864.008.867.007,1.156.85q.77,2.249,1.53,4.5c.192.574.217.54-.37.537h-.118ZM65.555,15.3c.581,0,.682.121.418-.582-.125-.333-.114-.725-.408-.988a3.812,3.812,0,0,0-.414.959C64.909,15.285,64.919,15.289,65.555,15.3Z"
        transform="translate(-7.179 -7.067)" style="fill:#f6aa0d" />
    <path
        d="M80.96,20.8c-.315-.109-.67-.221-1.016-.356-.149-.059-.135-.227-.15-.36-.072-.622-.135-1.245-.208-1.868-.039-.328-.086-.345-.352-.18a.961.961,0,0,0-.453.586,6.458,6.458,0,0,1-.226.667c-.076.2-.058.525-.261.551a1.863,1.863,0,0,1-.99-.3c-.124-.059-.058-.21-.022-.32.1-.3.2-.593.3-.89.438-1.3.872-2.6,1.312-3.9.142-.419.153-.431.572-.279.869.316.767.123.494.979-.1.316-.216.629-.322.945-.03.091-.089.207-.005.274s.173-.031.245-.089c.413-.331.85-.636,1.228-1a.85.85,0,0,1,1.1-.187c.206.106.567.076.61.279s-.288.32-.463.463c-.426.346-.851.7-1.3,1.011a.636.636,0,0,0-.288.7c.125.852.228,1.708.335,2.562.024.194.035.39.043.586C81.145,20.76,81.1,20.816,80.96,20.8Z"
        transform="translate(-7.179 -7.067)" style="fill:#f6aa0d" />
    <path
        d="M70.538,16.3c.059-.7.266-1.494.389-2.307.067-.446.162-.887.238-1.332.04-.23.145-.354.4-.293.057.014.118.011.174.025.721.182.758-.017.585.84s-.31,1.7-.46,2.545a4.442,4.442,0,0,0-.081.583.983.983,0,0,0,1.913.322c.113-.415.173-.844.25-1.269.13-.713.262-1.426.376-2.142.046-.3.16-.378.47-.329.822.13.828.113.687.917-.158.907-.323,1.814-.485,2.72-.014.077-.035.153-.052.229A2.227,2.227,0,0,1,71.3,18.077,2.051,2.051,0,0,1,70.538,16.3Z"
        transform="translate(-7.179 -7.067)" style="fill:#f6aa0d" />
    <path
        d="M90.766,23.327a1.216,1.216,0,0,0-.141.115,1.13,1.13,0,0,0-.1.145c-.5.751-.482.6.185,1.044.277.186.55.378.834.553.2.124.257.243.124.472-.435.754-.427.759-1.147.285-.606-.4-1.207-.806-1.818-1.2-.193-.124-.284-.224-.128-.457q1.439-2.154,2.854-4.322c.139-.213.266-.232.476-.09.731.494,1.47.976,2.212,1.454.212.137.237.269.092.476-.6.864-.347.764-1.15.262q-.424-.264-.835-.552a.23.23,0,0,0-.384.083c-.029.051-.068.1-.1.146-.378.585-.406.5.165.881.262.174.519.354.786.519.2.122.263.233.123.468-.446.75-.435.756-1.154.283-.229-.151-.458-.3-.688-.453C90.908,23.4,90.838,23.366,90.766,23.327Z"
        transform="translate(-7.179 -7.067)" style="fill:#f6aa0d" />
    <path
        d="M88.663,18.108a3.735,3.735,0,0,1-.453.85c-.091.1-.221.009-.323-.04-.405-.2-.816-.382-1.211-.6-.276-.152-.433-.082-.534.2-.02.054-.052.105-.077.158-.22.457-.221.459.234.689q.5.25,1,.493c.172.082.211.182.139.372-.311.834-.363.86-1.145.47-.245-.123-.491-.243-.738-.363-.085-.041-.192-.118-.265-.024a2.5,2.5,0,0,0-.412.836c-.038.13.121.183.224.234.419.211.835.431,1.264.622.229.1.276.213.174.448-.346.8-.338.8-1.1.424-.649-.321-1.3-.649-1.95-.957-.257-.122-.284-.257-.16-.5q1.13-2.259,2.232-4.53c.135-.278.265-.323.539-.181.764.4,1.543.766,2.314,1.149C88.515,17.9,88.64,17.935,88.663,18.108Z"
        transform="translate(-7.179 -7.067)" style="fill:#f6aa0d" />
    <path
        d="M50.507,114.562a3.438,3.438,0,0,1-1.667-.62.3.3,0,0,1-.157-.394c.046-.128.072-.264.109-.4.164-.587.163-.584.668-.2a1.945,1.945,0,0,0,.953.429.5.5,0,0,0,.548-.255.461.461,0,0,0-.076-.547c-.3-.338-.612-.661-.915-.994a1.628,1.628,0,0,1-.379-1.741,1.493,1.493,0,0,1,1.271-1.076,2.878,2.878,0,0,1,2,.513.3.3,0,0,1,.142.4c-.032.092-.053.188-.079.282-.179.639-.178.637-.7.285a1.83,1.83,0,0,0-.693-.309.553.553,0,0,0-.631.186.5.5,0,0,0,.115.642c.271.309.569.595.836.907a1.706,1.706,0,0,1-1.352,2.89Z"
        transform="translate(-7.179 -7.067)" style="fill:#f6aa0d" />
    <path
        d="M79.479,109.234a1.871,1.871,0,0,0-.821.119c-.225.106-.412.246-.394.524.016.255.207.37.422.43.415.116.836.206,1.25.323a1.665,1.665,0,0,1,1.3,1.5,1.539,1.539,0,0,1-.693,1.523,3.281,3.281,0,0,1-1.894.525.333.333,0,0,1-.381-.283c-.009-.038-.031-.072-.041-.11-.074-.263-.277-.591-.186-.772.1-.211.453.025.7.016a2.252,2.252,0,0,0,.8-.149.554.554,0,0,0,.408-.519c0-.289-.21-.412-.444-.477-.4-.109-.8-.185-1.2-.289a1.649,1.649,0,0,1-1.306-1.285,1.527,1.527,0,0,1,.585-1.668,2.865,2.865,0,0,1,1.817-.565.347.347,0,0,1,.384.278c.036.132.084.261.124.392C80.073,109.253,80.072,109.253,79.479,109.234Z"
        transform="translate(-7.179 -7.067)" style="fill:#f6aa0d" />
    <path
        d="M57.848,116.005a2.9,2.9,0,0,1-2.964-2.482,2.968,2.968,0,0,1,2.194-3.362,3.115,3.115,0,0,1,2.063.214.467.467,0,0,1,.315.6c-.022.095-.021.2-.048.289-.055.184.025.458-.137.541-.184.095-.32-.167-.489-.253a1.74,1.74,0,0,0-1.941.068,1.763,1.763,0,0,0,1.523,3.12c.57-.143.57-.143.489.422C58.74,115.951,58.68,116,57.848,116.005Z"
        transform="translate(-7.179 -7.067)" style="fill:#f6aa0d" />
    <path
        d="M48.168,14.386a.227.227,0,0,1,.308.162c.051.148.1.3.144.447.326,1.047.64,2.1.979,3.14.182.56.044.646.8.4.335-.108.674-.207,1.011-.31.075-.023.164-.083.222-.061.358.136.272.516.4.779.09.185.032.328-.2.395-.639.188-1.27.4-1.91.586-.312.089-.65.367-.94.188-.248-.154-.239-.558-.333-.853-.434-1.362-.857-2.728-1.281-4.093-.151-.487-.148-.489.331-.644C47.874,14.47,48.044,14.423,48.168,14.386Z"
        transform="translate(-7.179 -7.067)" style="fill:#f6aa0d" />
    <path
        d="M46.286,21.152c-.17.317-.544.311-.813.471a.228.228,0,0,1-.375-.12c-.021-.054-.05-.106-.074-.16q-.971-2.261-1.941-4.523c-.177-.416-.173-.429.226-.6.84-.36.667-.43,1.019.381q.9,2.07,1.787,4.143C46.169,20.87,46.221,21,46.286,21.152Z"
        transform="translate(-7.179 -7.067)" style="fill:#f6aa0d" />
    <path
        d="M45.487,112.886c-.29-.115-.564-.221-.835-.335-.138-.058-.14-.168-.09-.292.1-.236.189-.473.283-.711q.783-2,1.568-4c.165-.418.171-.416.584-.261.727.272.728.272.439,1.005q-.84,2.134-1.684,4.267C45.7,112.7,45.688,112.882,45.487,112.886Z"
        transform="translate(-7.179 -7.067)" style="fill:#f6aa0d" />
    <path
        d="M83.1,106.532c.21.021.236.17.288.29q.48,1.1.957,2.207c.342.79.679,1.582,1.032,2.367.105.235.117.364-.163.493-.8.366-.793.381-1.143-.426-.59-1.364-1.184-2.727-1.77-4.092-.176-.41-.168-.416.236-.6C82.729,106.682,82.928,106.6,83.1,106.532Z"
        transform="translate(-7.179 -7.067)" style="fill:#f6aa0d" />
    <path
        d="M88.041,57.872c1.177.035,2.341.207,3.509.342.759.088,1.515.2,2.272.309.441.062.444.064.481.5.086,1.036.168,2.072.253,3.108.035.429.038.457.425.475,5.264.245,10.011,2.116,14.558,4.615,1.031.567,2.037,1.178,3.058,1.762a.569.569,0,0,1,.346.549,31.041,31.041,0,0,0,1.672,9.1,76.812,76.812,0,0,1,2.008,7.614,28.854,28.854,0,0,1-.3,12.657c0,.019-.007.039-.013.058-.18.559-.037.736-.726.314-1.723-1.055-3.474-2.061-5.265-3a45.219,45.219,0,0,0-9.816-3.9,32.486,32.486,0,0,0-7.857-1,9.564,9.564,0,0,1-1.174-.048c-.549-.071-.6-.19-.392-.688a5.381,5.381,0,0,1,.676-1.1c.568-.754,1.236-1.42,1.855-2.129.109-.125.342-.239.261-.41s-.32-.072-.49-.086a30.707,30.707,0,0,0-10.347,1.215c-5.5,1.416-11.007,2.837-16.52,4.218-3.612.905-7.25,1.706-10.859,2.624-4.14,1.053-8.258,2.193-12.391,3.277A61.017,61.017,0,0,1,36.9,99.669a10.168,10.168,0,0,1-3.454-.046c-1.606-.306-2.11-1.055-1.829-2.678a21.111,21.111,0,0,1,.944-3.273c.288-.834.581-1.666.867-2.5.189-.554.167-.584-.381-.481q-1.3.244-2.6.5c-2.538.508-5.076,1.011-7.648,1.315a32.364,32.364,0,0,1-8.332.044c-.55-.078-.552-.071-.554-.653-.037-9.1-.049-18.206.012-27.309.01-1.588.053-3.177.088-4.765.009-.435.026-.449.437-.31A31.12,31.12,0,0,0,26.317,61.17c2.313-.123,4.6-.507,6.9-.7a10,10,0,0,1,3.159.154,5.319,5.319,0,0,1,2.577,1.456,1.243,1.243,0,0,1,.389.875c.088,1.468.216,2.933.312,4.4.017.261.1.392.363.433a29.4,29.4,0,0,0,4.5.458.308.308,0,0,1,.049.053.429.429,0,0,0-.027.114,16.063,16.063,0,0,0,.646,3.4c.064.231.219.245.4.236.549-.029,1.1-.067,1.645-.086a51.778,51.778,0,0,0,5.561-.523,60.56,60.56,0,0,0,12.84-3.322c2.313-.871,4.586-1.841,6.876-2.768a39.462,39.462,0,0,1,15.33-3.186c.5.005.49-.01.493-.544A29.779,29.779,0,0,0,88.041,57.872Zm-1.733,8.717a30.542,30.542,0,0,0-4.038.356,40.735,40.735,0,0,0-7.684,2.162c-3.158,1.179-6.269,2.484-9.445,3.619a65.392,65.392,0,0,1-16.348,3.726c-.469.041-.937.082-1.407.111-.44.027-.464.07-.252.432q.342.583.7,1.155A14.941,14.941,0,0,0,49.189,80a.862.862,0,0,0,.859.332q2.128-.273,4.239-.661a75.11,75.11,0,0,0,11.884-3.3c2.95-1.065,5.882-2.178,8.856-3.176a34.977,34.977,0,0,1,11.159-2.1.569.569,0,0,0,.579-.385c.358-.763.738-1.516,1.1-2.279a9.472,9.472,0,0,0,.527-1.434c.067-.233.027-.369-.26-.381A17.845,17.845,0,0,0,86.308,66.589ZM63.13,85.377a22.088,22.088,0,0,0,4.882-.538,31.223,31.223,0,0,0,12.1-5.525,28.981,28.981,0,0,0,3.7-3.27c.065-.068.166-.168.153-.232-.032-.151-.189-.086-.3-.094a3.539,3.539,0,0,0-.412,0,17.77,17.77,0,0,0-3.64.635c-2.867.744-5.652,1.743-8.445,2.718-3.662,1.279-7.307,2.608-11.055,3.625a30.343,30.343,0,0,1-5.36,1.021c-.109.009-.288-.045-.309.057-.027.127.154.137.256.181s.182.073.274.105A23.628,23.628,0,0,0,63.13,85.377Z"
        transform="translate(-7.179 -7.067)" style="fill:#0e2240" />
    <path
        d="M44.519,68.248c.046-1,.047-2,.078-3a23.022,23.022,0,0,1,7.978-16.9,24.332,24.332,0,0,1,7.855-4.975A21.587,21.587,0,0,1,84.5,50.284a19.575,19.575,0,0,1,3.436,7.353,1.01,1.01,0,0,1,.011.175c-.313.006-.626.02-.939.018A35.414,35.414,0,0,0,76.3,59.44a79.637,79.637,0,0,0-7.893,3.035,94.729,94.729,0,0,1-9.147,3.54,48.85,48.85,0,0,1-10.706,2.077c-1.329.1-2.661.129-3.99.209A.308.308,0,0,0,44.519,68.248Z"
        transform="translate(-7.179 -7.067)" style="fill:#fffffe" />
    <path
        d="M44.568,68.3c1.329-.08,2.661-.105,3.99-.209a48.85,48.85,0,0,0,10.706-2.077,94.729,94.729,0,0,0,9.147-3.54A79.637,79.637,0,0,1,76.3,59.44a35.414,35.414,0,0,1,10.708-1.61c.313,0,.626-.012.939-.018q.047.029.09.06a29.779,29.779,0,0,1,.294,3.75c0,.534,0,.549-.493.544a39.462,39.462,0,0,0-15.33,3.186c-2.29.927-4.563,1.9-6.876,2.768A60.56,60.56,0,0,1,52.8,71.442a51.778,51.778,0,0,1-5.561.523c-.548.019-1.1.057-1.645.086-.184.009-.339,0-.4-.236a16.063,16.063,0,0,1-.646-3.4A.429.429,0,0,1,44.568,68.3Z"
        transform="translate(-7.179 -7.067)" style="fill:#06a6e0" />
    <path d="M39.927,20.848c-.041.021-.072.013-.074-.025,0-.019.023-.039.036-.059l.033.089Z"
        transform="translate(-7.179 -7.067)" style="fill:#fffffe" />
    <polygon points="29.556 15.559 29.556 15.542 29.557 15.567 29.556 15.559" style="fill:#fffffe" />
    <path d="M37.831,107.059c-.022.039-.047.1-.1.052s-.009-.087.029-.122Z" transform="translate(-7.179 -7.067)"
        style="fill:#fffffe" />
    <path d="M71.3,112.852c-.006-.047-.034-.114-.013-.137.048-.05.08.01.109.046Z" transform="translate(-7.179 -7.067)"
        style="fill:#fffffe" />
    <path d="M90.357,106.4c.041.036.083.081.038.129s-.1.012-.139-.02Z" transform="translate(-7.179 -7.067)"
        style="fill:#fffffe" />
    <path
        d="M86.308,66.589a17.845,17.845,0,0,1,1.821.036c.287.012.327.148.26.381a9.472,9.472,0,0,1-.527,1.434c-.359.763-.739,1.516-1.1,2.279a.569.569,0,0,1-.579.385,34.977,34.977,0,0,0-11.159,2.1c-2.974,1-5.906,2.111-8.856,3.176a75.11,75.11,0,0,1-11.884,3.3q-2.109.388-4.239.661A.862.862,0,0,1,49.189,80a14.941,14.941,0,0,1-1.351-1.852q-.361-.57-.7-1.155c-.212-.362-.188-.405.252-.432.47-.029.938-.07,1.407-.111a65.392,65.392,0,0,0,16.348-3.726c3.176-1.135,6.287-2.44,9.445-3.619a40.735,40.735,0,0,1,7.684-2.162A30.542,30.542,0,0,1,86.308,66.589Z"
        transform="translate(-7.179 -7.067)" style="fill:#06a6e0" />
    <path
        d="M63.13,85.377a23.628,23.628,0,0,1-8.155-1.316c-.092-.032-.185-.065-.274-.105s-.283-.054-.256-.181c.021-.1.2-.048.309-.057a30.343,30.343,0,0,0,5.36-1.021c3.748-1.017,7.393-2.346,11.055-3.625,2.793-.975,5.578-1.974,8.445-2.718a17.77,17.77,0,0,1,3.64-.635,3.539,3.539,0,0,1,.412,0c.106.008.263-.057.3.094.013.064-.088.164-.153.232a28.981,28.981,0,0,1-3.7,3.27,31.223,31.223,0,0,1-12.1,5.525A22.088,22.088,0,0,1,63.13,85.377Z"
        transform="translate(-7.179 -7.067)" style="fill:#06a6e0" />
</svg>