<svg
    xmlns="http://www.w3.org/2000/svg"
    viewBox="0 0 511 512"
    id="vector">
    <path
        id="path_9"
        d="M 503.82 19.398 C 503.617 27.699 503.418 35.8 502.918 43.8 C 494.52 192.198 433.219 307.198 358.918 307.198 C 354.617 307.198 350.32 306.8 346.117 305.999 C 277.719 293.8 222.82 183.499 214.918 43.8 C 214.418 35.8 214.117 27.698 214.02 19.398 C 214.02 17.601 214.52 15.898 215.52 14.5 C 217.52 11.699 221.118 10.301 224.52 11.102 C 264.52 20 305.321 24.801 346.321 25.7 C 390.118 26.602 433.919 22.802 476.919 14.501 C 482.419 13.501 487.919 12.302 493.521 11.103 C 496.021 10.501 498.72 11.103 500.822 12.701 C 502.619 14.303 503.822 16.803 503.822 19.4 Z M 503.82 19.398"
        fill="#ffb301"/>
    <path
        id="path_10"
        d="M 478.32 19.398 C 478.117 27.699 477.918 35.8 477.418 43.8 C 469.52 183.601 414.617 293.8 346.117 305.999 C 277.719 293.8 222.82 183.499 214.918 43.8 C 214.418 35.8 214.117 27.698 214.02 19.398 C 214.02 17.601 214.52 15.898 215.52 14.5 C 258.618 22.898 302.418 26.602 346.219 25.699 C 387.219 24.801 428.02 20 468.02 11.101 C 471.418 10.398 474.918 11.699 476.918 14.499 C 477.82 15.897 478.32 17.601 478.32 19.397 Z M 478.32 19.398"
        fill="#fdd834"/>
    <path
        id="path_11"
        d="M 284.617 163 C 285.32 160.602 287.019 158.602 289.32 157.602 C 291.617 156.602 294.218 156.602 296.519 157.602 C 316.218 165.102 337.218 168.7 358.32 168.2 C 379.418 168.7 400.418 165.102 420.117 157.602 C 422.418 156.602 425.019 156.602 427.32 157.602 C 429.617 158.602 431.32 160.602 432.019 163 C 432.82 166 433.218 169 433.218 172.102 C 433.218 200.301 399.718 223.2 358.417 223.2 C 317.116 223.2 283.417 200.399 283.417 172.2 C 283.417 169.102 283.819 166.001 284.616 163.001 Z M 284.617 163"
        fill="#d84315"/>
    <path
        id="path_12"
        d="M 332.02 102.699 C 321.02 98.301 308.918 97.601 297.618 101 C 286.02 103.301 275.618 109.5 268.02 118.602 C 265.52 115.102 263.618 111.2 262.618 107 C 258.419 88.199 270.02 69.602 288.72 64.898 C 307.419 60.3 326.322 71.398 331.419 89.898 C 332.419 94.101 332.618 98.5 332.021 102.699 Z M 332.02 102.699"
        fill="#d84315"/>
    <path
        id="path_13"
        d="M 448.82 118.602 C 441.218 109.602 430.718 103.399 419.218 101 C 407.917 97.699 395.718 98.301 384.82 102.699 C 384.218 98.398 384.418 94.101 385.519 89.898 C 390.617 71.398 409.519 60.3 428.218 64.898 C 446.917 69.5 458.417 88.199 454.32 107 C 453.117 111.199 451.32 115.102 448.82 118.602 Z M 448.82 118.602"
        fill="#d84315"/>
    <path
        id="path_14"
        d="M 299.02 215.602 C 298.821 223.899 298.618 232 298.118 240 C 289.72 388.398 228.419 503.398 154.118 503.398 C 149.821 503.398 145.52 503 141.321 502.199 C 72.821 490.101 17.919 379.801 10.02 240 C 9.52 232 9.219 223.898 9.118 215.602 C 9.118 213.801 9.618 212.102 10.618 210.7 C 12.618 207.899 16.22 206.501 19.618 207.302 C 59.618 216.2 100.419 221.001 141.419 221.9 C 185.22 222.802 229.021 219.002 272.021 210.701 C 277.521 209.701 283.021 208.502 288.619 207.303 C 291.119 206.701 293.822 207.303 295.92 208.901 C 297.822 210.503 299.022 213.003 299.022 215.604 Z M 299.02 215.602"
        fill="#00af80"/>
    <path
        id="path_15"
        d="M 273.52 215.602 C 273.321 223.899 273.118 232 272.618 240 C 264.72 379.801 209.821 490 141.321 502.199 C 72.821 490.101 17.919 379.801 10.02 240 C 9.52 232 9.219 223.898 9.118 215.602 C 9.118 213.801 9.618 212.102 10.618 210.7 C 53.72 219.102 97.52 222.802 141.321 221.899 C 182.321 221.001 223.118 216.2 263.118 207.301 C 266.52 206.602 270.02 207.899 272.02 210.699 C 273.02 212.101 273.52 213.898 273.52 215.601 Z M 273.52 215.602"
        fill="#69e781"/>
    <path
        id="path_22"
        d="M 127.219 276 C 116.219 280.398 104.117 281 92.821 277.602 C 81.219 275.301 70.821 269.102 63.219 260 C 60.617 263.5 58.821 267.5 57.821 271.699 C 53.52 290.5 65.02 309.301 83.821 314 C 102.618 318.699 121.52 307.398 126.52 288.801 C 127.618 284.602 127.821 280.199 127.219 276 Z M 127.219 276"
        fill="#1273eb"/>
    <path
        id="path_23"
        d="M 243.918 260 C 236.32 269.102 225.918 275.301 214.32 277.602 C 203.019 280.899 190.918 280.399 179.918 276 C 179.32 280.301 179.52 284.602 180.617 288.801 C 185.617 307.399 204.617 318.602 223.418 314 C 242.117 309.398 253.719 290.602 249.418 271.699 C 248.32 267.5 246.52 263.5 243.918 260 Z M 243.918 260"
        fill="#1273eb"/>
    <path
        id="path_24"
        d="M 79.82 410.102 C 80.519 412.5 82.218 414.5 84.519 415.5 C 86.82 416.5 89.417 416.5 91.718 415.5 C 111.417 408 132.417 404.398 153.519 404.898 C 174.617 404.398 195.617 408 215.32 415.5 C 217.617 416.5 220.218 416.5 222.519 415.5 C 224.82 414.5 226.519 412.5 227.218 410.102 C 228.019 407.102 228.417 404.102 228.417 401 C 228.417 372.801 194.917 349.898 153.616 349.898 C 112.319 349.898 78.616 372.699 78.616 401 C 78.616 404 79.018 407.102 79.819 410.102 Z M 79.82 410.102"
        fill="#1273eb"/>
    <path
        id="path_25"
        d="M 339.617 87.898 C 335.019 70.898 320.719 58.199 303.32 55.699 C 285.918 53.199 268.617 61.301 259.418 76.301 C 253.32 86.102 251.418 97.899 254.219 109.102 C 255.52 114.102 257.617 118.7 260.617 122.899 C 260.719 123.001 260.719 123.102 260.82 123.2 C 260.918 123.302 260.918 123.501 261.019 123.602 C 261.218 123.899 261.519 123.899 261.718 124.2 C 262.116 124.7 262.519 125.2 263.019 125.602 C 263.218 125.801 263.519 125.801 263.82 126 C 264.019 126.102 264.32 126.301 264.617 126.398 C 265.719 126.898 266.82 127.199 268.019 127.199 C 269.218 127.199 270.32 126.898 271.417 126.398 C 271.718 126.3 271.917 126.101 272.218 126 C 272.519 125.899 272.718 125.699 273.019 125.602 C 273.519 125.2 273.917 124.7 274.32 124.2 C 274.519 124.001 274.82 123.899 274.918 123.602 C 281.32 116.2 290.02 111.2 299.617 109.399 C 309.019 106.501 319.019 106.899 328.117 110.399 C 329.019 110.602 329.918 110.899 330.82 111.301 L 331.117 111.301 C 331.719 111.301 332.32 111.301 332.918 111.199 C 333.918 111.199 335.02 110.898 335.82 110.301 C 336.32 110.102 336.82 109.801 337.32 109.399 C 337.718 109.102 338.019 108.7 338.32 108.301 C 338.718 107.899 339.117 107.399 339.418 106.899 C 339.52 106.801 339.52 106.801 339.617 106.7 C 339.82 106.302 339.918 105.802 340.019 105.399 C 340.218 105.001 340.32 104.501 340.519 104.102 C 340.519 104 340.519 103.801 340.519 103.7 C 340.519 103.501 340.519 103.399 340.519 103.302 C 341.218 98.001 340.917 92.9 339.617 87.9 Z M 295.617 92.801 C 286.719 94.899 278.32 98.801 270.82 104.102 C 269.418 97.602 270.617 90.899 274.117 85.2 C 277.82 79.102 283.82 74.802 290.82 73.102 C 304.718 69.5 319.019 77.602 323.019 91.399 C 313.82 90.102 304.519 90.501 295.617 92.801 Z M 295.617 92.801"
        fill="#000000"/>
    <path
        id="path_26"
        d="M 376.32 103.5 L 376.32 103.898 C 376.418 104.398 376.617 104.8 376.82 105.199 C 376.918 105.699 377.019 106.101 377.218 106.601 C 377.218 106.699 377.32 106.699 377.417 106.8 C 378.116 107.698 378.819 108.601 379.519 109.398 C 379.917 109.699 380.32 109.898 380.82 110.101 C 381.32 110.398 381.82 110.699 382.418 110.898 C 382.918 111 383.32 111 383.82 111.101 C 384.418 111.199 385.117 111.3 385.718 111.199 L 386.019 111.199 C 386.519 111.101 386.917 110.898 387.417 110.699 C 387.819 110.601 388.319 110.5 388.718 110.301 C 397.82 106.801 407.917 106.399 417.218 109.301 C 426.82 111.102 435.519 116.102 441.917 123.5 C 442.116 123.699 442.417 123.801 442.616 124.102 C 443.116 124.899 443.819 125.602 444.718 125.899 C 445.019 126.001 445.218 126.2 445.519 126.301 C 446.617 126.801 447.718 127.102 448.917 127.102 C 450.116 127.102 451.218 126.801 452.319 126.301 C 452.616 126.199 452.819 126.102 453.116 125.899 C 453.417 125.801 453.616 125.7 453.917 125.501 C 454.417 125.103 454.819 124.603 455.218 124.103 C 455.417 123.9 455.718 123.802 455.917 123.501 C 456.019 123.399 456.019 123.2 456.116 123.103 C 456.218 123.001 456.218 122.9 456.319 122.802 C 459.217 118.603 461.417 113.9 462.616 109.001 C 465.417 97.802 463.616 86.001 457.518 76.2 C 448.319 61.2 431.018 53.102 413.616 55.602 C 396.218 58.102 381.917 70.801 377.319 87.801 C 376.116 92.801 375.819 97.899 376.417 103 C 376.319 103.199 376.218 103.301 376.319 103.5 Z M 426.117 73.102 C 433.019 74.801 439.019 79.102 442.82 85.2 C 446.32 90.802 447.519 97.602 446.117 104.102 C 438.617 98.801 430.219 94.899 421.32 92.801 C 412.418 90.602 403.117 90.102 394.019 91.399 C 397.917 77.602 412.218 69.501 426.117 73.102 Z M 426.117 73.102"
        fill="#000000"/>
    <path
        id="path_27"
        d="M 1.418 240.5 C 10.219 395.301 75.82 512 154.02 512 C 210.821 512 261.02 450.301 287.52 357.199 C 307.118 353.5 327.118 353.801 346.618 358.101 C 343.321 363.398 339.52 368.398 335.321 373.101 C 324.219 386.3 312.719 399.999 318.618 412.699 C 323.118 422.398 335.52 426.699 358.919 426.699 C 363.618 426.699 367.419 422.898 367.419 418.199 C 367.419 413.5 363.618 409.699 358.919 409.699 C 337.419 409.699 334.22 405.699 334.22 405.699 C 333.521 401.898 343.618 389.898 348.521 384.199 C 358.521 372.301 367.119 362.101 363.919 352.101 C 361.919 346.601 357.118 342.699 351.321 341.8 C 332.02 337.398 312.118 336.499 292.52 339.398 C 300.219 307 305.02 274 306.821 240.8 C 307.219 233.8 307.52 226.698 307.719 219.499 C 323.321 227.897 340.821 232.198 358.52 231.999 C 404.418 231.999 441.821 205.198 441.821 172.397 C 441.821 164.397 439.618 156.499 435.618 149.6 L 435.52 149.498 L 435.52 149.396 C 434.821 148.599 434.02 147.798 433.321 146.998 C 432.821 146.697 432.419 146.498 431.919 146.299 C 431.419 145.998 430.919 145.799 430.419 145.6 C 429.919 145.498 429.321 145.498 428.821 145.498 C 428.219 145.396 427.719 145.396 427.118 145.396 C 426.118 145.798 425.02 146.099 424.02 146.396 L 423.918 146.498 L 423.82 146.498 C 403.418 156.197 381.019 160.799 358.519 159.896 C 332.019 159.896 307.019 154.798 293.218 146.498 L 293.116 146.498 L 293.018 146.396 C 292.518 146.197 292.018 145.998 291.518 145.896 C 290.518 145.298 289.217 145.197 288.116 145.396 C 287.616 145.396 287.116 145.396 286.718 145.498 C 286.116 145.697 285.519 145.998 284.917 146.396 C 284.519 146.599 284.116 146.798 283.819 146.998 C 283.417 147.396 282.917 147.799 282.616 148.299 C 282.218 148.6 281.917 148.998 281.616 149.397 L 281.616 149.499 L 281.417 149.499 C 277.319 156.397 275.218 164.3 275.116 172.3 C 275.218 182.101 278.518 191.698 284.417 199.499 C 194.218 218.999 100.917 217.999 11.116 196.601 C 10.819 196.601 10.417 196.601 10.116 196.601 C 9.819 196.499 9.518 196.398 9.116 196.398 C 8.917 196.398 8.718 196.5 8.518 196.5 C 7.916 196.602 7.319 196.699 6.717 196.898 C 6.217 197 5.717 197.199 5.319 197.398 C 4.819 197.699 4.417 198 3.917 198.3 C 3.519 198.601 3.116 198.999 2.718 199.398 C 2.417 199.8 2.116 200.3 1.82 200.699 C 1.519 201.199 1.32 201.699 1.117 202.301 C 1.019 202.5 0.918 202.699 0.82 202.899 L 0.82 203.899 C 0.718 204.2 0.617 204.501 0.519 204.899 C 0.417 216.899 0.718 228.899 1.417 240.501 Z M 423.617 165.301 C 424.219 167.5 424.519 169.899 424.519 172.199 C 424.519 195.199 394.218 214.801 358.218 214.801 C 322.218 214.801 291.917 195.301 291.917 172.199 C 291.917 169.898 292.218 167.601 292.819 165.398 C 313.616 173.398 335.819 177.3 358.116 176.898 C 380.518 177.3 402.718 173.3 423.616 165.3 Z M 290.418 215.5 C 290.32 223.602 290.02 231.699 289.52 239.602 C 281.321 382.801 221.821 495 154.02 495 C 86.219 495 26.618 382.801 18.52 239.5 C 18.02 231.602 17.821 223.602 17.618 215.5 C 62.419 225.398 108.118 230.398 154.02 230.398 C 199.918 230.398 245.618 225.398 290.418 215.5 Z M 290.418 215.5"
        fill="#000000"/>
    <path
        id="path_28"
        d="M 70.918 393.102 C 70.918 393.2 70.918 393.301 70.82 393.5 C 70.32 396 70.117 398.5 70.117 401.102 C 70.117 409.102 72.32 417 76.32 423.899 L 76.418 424.001 L 76.418 424.103 C 76.719 424.501 77.117 424.9 77.52 425.302 C 77.821 425.802 78.219 426.2 78.719 426.603 C 79.219 426.9 79.719 427.201 80.321 427.4 C 80.719 427.701 81.219 427.9 81.719 428.002 C 82.321 428.104 83.02 428.201 83.617 428.104 C 84.019 428.202 84.519 428.202 84.918 428.202 C 85.52 428.104 86.117 427.901 86.719 427.604 C 87.219 427.502 87.617 427.303 88.02 427.104 L 88.118 427.002 L 88.22 427.002 C 90.021 425.9 91.919 425.002 93.822 424.104 C 112.822 416.604 133.119 413.002 153.521 413.604 C 174.22 413.002 194.822 416.702 214.021 424.401 C 215.72 425.303 217.322 426.104 218.822 427.003 L 218.92 427.105 L 219.022 427.203 C 219.42 427.402 219.823 427.605 220.221 427.703 C 220.522 427.805 220.721 427.902 221.022 428.004 C 221.721 428.203 222.522 428.305 223.221 428.305 C 223.92 428.305 224.721 428.203 225.42 428.004 C 225.619 427.902 225.92 427.805 226.119 427.703 C 226.619 427.605 227.021 427.402 227.42 427.203 C 227.721 427.004 227.92 426.902 228.119 426.703 C 228.521 426.504 228.822 426.203 229.119 425.902 C 229.322 425.703 229.521 425.402 229.721 425.105 C 230.022 424.804 230.221 424.503 230.522 424.203 L 230.522 424.105 L 230.62 424.003 C 234.62 417.105 236.823 409.304 236.921 401.304 C 236.921 399.402 236.823 397.503 236.523 395.605 C 232.523 364.902 196.824 341.703 153.523 341.703 C 111.023 341.305 76.324 363.105 70.921 393.105 Z M 153.418 358.398 C 187.52 358.398 216.52 375.601 219.52 397.8 C 219.719 398.898 219.719 399.898 219.719 400.999 C 219.719 403.3 219.418 405.601 218.821 407.8 C 198.02 399.8 175.821 395.898 153.419 396.398 C 133.321 396.101 105.521 401.601 86.22 408.8 C 85.618 402.398 86.919 398.198 88.22 393.8 C 94.118 373.898 121.618 358.398 153.419 358.398 Z M 153.418 358.398"
        fill="#000000"/>
    <path
        id="path_29"
        d="M 81.719 322.102 C 85.219 323 88.821 323.399 92.418 323.399 C 112.32 323.501 129.82 310.102 134.719 290.801 C 135.918 285.801 136.219 280.699 135.617 275.602 C 135.617 275.399 135.617 275.301 135.617 275.102 C 135.617 275 135.617 274.801 135.617 274.7 C 135.219 273.802 135.019 273.001 134.719 272.102 C 134.617 272 134.617 271.899 134.52 271.899 C 134.219 271.301 133.821 270.801 133.321 270.399 C 133.02 270.001 132.719 269.7 132.419 269.399 C 131.919 269.102 131.419 268.801 130.821 268.501 C 130.419 268.302 129.919 268.001 129.52 267.899 C 129.02 267.801 128.52 267.7 128.02 267.7 C 127.418 267.602 126.821 267.602 126.219 267.602 C 126.117 267.602 126.02 267.602 125.918 267.602 C 125.52 267.7 125.117 267.899 124.719 268 C 124.219 268.102 123.821 268.199 123.321 268.398 C 114.219 271.898 104.118 272.199 94.821 269.398 C 85.219 267.5 76.52 262.5 70.118 255.199 C 69.821 254.801 69.419 254.5 69.118 254.199 C 68.821 253.801 68.52 253.5 68.22 253.199 C 68.118 253.101 68.021 253.101 67.919 253.101 C 67.419 252.8 66.821 252.499 66.321 252.398 C 65.821 252.199 65.321 252 64.821 251.8 C 64.321 251.698 63.821 251.698 63.321 251.698 C 62.719 251.6 62.219 251.6 61.618 251.698 C 61.118 251.8 60.72 251.999 60.321 252.198 C 59.719 252.397 59.118 252.6 58.618 252.999 C 58.52 253.101 58.419 253.101 58.321 253.101 C 58.02 253.398 57.618 253.699 57.419 254.101 C 57.021 254.398 56.72 254.699 56.419 255.101 C 56.321 255.199 56.321 255.398 56.22 255.499 L 56.021 255.8 C 53.021 259.999 50.919 264.698 49.72 269.698 C 46.919 280.698 48.618 292.3 54.521 301.897 C 60.419 311.999 70.322 319.299 81.72 322.1 Z M 90.82 285.898 C 96.82 287.398 102.918 288.199 109.019 288.199 C 112.019 288.199 115.019 287.898 118.019 287.5 C 113.917 301.199 99.718 309.199 85.917 305.602 C 78.819 303.899 72.819 299.399 69.019 293.102 C 65.718 287.602 64.617 281 66.019 274.7 C 73.417 280.001 81.917 283.802 90.82 285.899 Z M 90.82 285.898"
        fill="#000000"/>
    <path
        id="path_30"
        d="M 172.32 290.801 C 177.32 310.102 194.82 323.5 214.718 323.399 C 218.32 323.399 221.917 323.001 225.417 322.102 C 248.819 316.399 263.218 293 257.616 269.602 C 256.319 264.602 254.218 259.899 251.218 255.7 C 251.116 255.602 251.116 255.501 251.019 255.399 C 250.917 255.301 250.917 255.102 250.82 255.001 C 250.117 254.399 249.418 253.7 248.82 253.001 C 248.718 252.899 248.617 252.899 248.519 252.899 C 248.019 252.602 247.417 252.301 246.82 252.102 C 246.418 251.899 245.918 251.7 245.519 251.602 C 244.917 251.5 244.417 251.5 243.82 251.602 C 243.32 251.602 242.82 251.602 242.218 251.7 C 241.718 251.802 241.218 252.001 240.82 252.2 C 240.218 252.399 239.718 252.602 239.117 253.001 C 239.019 253.103 238.918 253.103 238.82 253.103 C 238.218 253.802 237.519 254.501 236.82 255.103 C 230.418 262.4 221.718 267.4 212.117 269.302 C 202.719 272.103 192.719 271.802 183.617 268.302 C 183.219 268.103 182.719 268.001 182.32 267.9 C 181.918 267.701 181.519 267.603 181.117 267.502 C 181.019 267.502 180.918 267.502 180.82 267.502 C 180.218 267.502 179.617 267.502 178.918 267.604 C 178.418 267.604 177.918 267.702 177.418 267.803 C 176.918 268.002 176.418 268.201 175.918 268.502 C 175.418 268.701 174.918 269.002 174.52 269.303 C 174.118 269.604 173.821 270.002 173.52 270.401 C 173.118 270.803 172.719 271.303 172.418 271.901 C 172.32 272.003 172.219 272.104 172.219 272.202 C 172.02 272.604 171.918 273.104 171.821 273.503 C 171.618 273.901 171.52 274.304 171.321 274.804 L 171.321 275.304 L 171.321 275.804 C 170.821 280.702 171.118 285.902 172.321 290.804 Z M 198.117 288.199 C 204.32 288.199 210.418 287.398 216.418 285.898 C 225.32 283.8 233.82 280 241.32 274.601 C 243.918 288.601 235.218 302.199 221.32 305.601 C 207.519 308.999 193.418 301.101 189.218 287.499 C 192.116 287.897 195.116 288.198 198.116 288.198 Z M 198.117 288.199"
        fill="#000000"/>
    <path
        id="path_31"
        d="M 145.52 170.699 C 145.52 175.398 149.321 179.199 154.02 179.199 C 158.719 179.199 162.52 175.398 162.52 170.699 C 161.719 159.699 158.719 149 153.821 139.101 C 150.02 129.898 145.719 119.499 147.919 115.199 C 149.118 112.898 153.021 111.5 156.021 110.699 C 174.919 106.5 194.521 106.101 213.619 109.398 C 217.822 134.8 224.119 159.8 232.42 184.101 C 233.619 187.499 236.822 189.8 240.522 189.8 C 241.42 189.8 242.42 189.601 243.323 189.3 C 245.421 188.601 247.221 186.999 248.221 184.999 C 249.221 182.999 249.323 180.601 248.619 178.499 C 231.721 127.101 222.92 73.397 222.521 19.198 C 267.322 29.1 313.021 34.1 358.822 34.1 C 404.72 34.1 450.42 29.1 495.22 19.198 C 492.521 174.3 432.419 298.698 358.822 298.698 C 348.822 298.698 339.021 296.397 330.021 291.999 C 327.22 290.698 324.021 290.897 321.419 292.601 C 318.919 294.3 317.521 297.3 317.72 300.398 C 318.021 303.5 319.822 306.101 322.618 307.398 C 333.919 312.8 346.22 315.699 358.72 315.699 C 444.919 315.699 512.419 180.801 512.419 8.5 C 512.419 8.199 512.321 7.801 512.22 7.5 C 512.22 7.199 512.22 6.801 512.22 6.5 C 512.118 6.301 512.021 6.102 511.919 5.898 C 511.72 5.398 511.521 4.8 511.22 4.3 C 511.021 3.8 510.72 3.398 510.322 2.999 C 509.92 2.601 509.521 2.198 509.119 1.897 C 508.721 1.6 508.221 1.299 507.822 0.999 C 507.322 0.8 506.822 0.601 506.322 0.397 C 505.822 0.198 505.22 0.1 504.619 0.1 C 504.42 0.1 504.119 -0.002 503.92 -0.002 C 503.619 -0.002 503.221 0.1 502.92 0.197 C 502.619 0.197 502.221 0.197 501.92 0.197 C 407.822 22.697 309.822 22.697 215.721 0.197 C 215.42 0.197 215.022 0.197 214.721 0.197 C 214.42 0.099 214.022 0.099 213.721 -0.002 C 213.522 -0.002 213.323 0.1 213.022 0.1 C 212.42 0.198 211.823 0.299 211.221 0.397 C 210.721 0.499 210.221 0.698 209.823 0.897 C 209.323 1.198 208.823 1.499 208.421 1.799 C 208.023 2.1 207.62 2.498 207.222 2.897 C 206.921 3.299 206.62 3.799 206.324 4.198 C 206.023 4.698 205.824 5.198 205.621 5.698 C 205.523 5.897 205.422 6.1 205.324 6.3 L 205.324 7.3 C 205.222 7.601 205.121 7.898 205.121 8.3 C 205.121 36.101 207.023 63.898 210.824 91.499 C 191.222 88.601 171.222 89.499 151.824 93.897 C 143.722 95.299 136.621 100.198 132.523 107.299 C 126.824 118.697 132.421 132.299 137.921 145.498 C 142.023 153.498 144.523 161.998 145.523 170.697 Z M 145.52 170.699"
        fill="#000000"/>
</svg>
