<svg
    xmlns="http://www.w3.org/2000/svg"
    viewBox="0 0 58 60"
    id="vector">
    <path
        id="path"
        d="M 57 20 C 57 24 54 40 34 41 C 36.239 38.219 38.947 35.85 42 34 C 48.08 30.35 49.77 28.3 49.97 24.8 C 49.99 24.54 50 24.28 50 24 C 50.121 22.117 49.387 20.28 48 19 C 46.51 17.51 47.24 11.59 56.78 17.74 C 56.926 18.484 57 19.241 57 20 Z"
        fill="#f44335"/>
    <path
        id="path_1"
        d="M 56.78 17.74 C 52.517 14.992 50.017 14.657 48.68 15.257 C 50.494 15.826 52.213 16.663 53.78 17.74 C 53.926 18.484 54 19.241 54 20 C 54 23.772 51.326 38.208 34.253 40.682 C 34.091 40.881 34 41 34 41 C 54 40 57 24 57 20 C 57 19.241 56.926 18.484 56.78 17.74 Z"
        fill="#c81e1e"/>
    <path
        id="path_2"
        d="M 49.97 24.8 C 49.77 28.3 48.08 30.35 42 34 C 38.947 35.85 36.239 38.219 34 41 C 34 41 24 54 13 59 C 18.195 52.367 22.875 45.346 27 38 C 27 38 12 42 1 40 C 1 40 15.51 38.39 25.71 31.53 L 25.72 31.53 C 27.127 31.468 28.508 31.125 29.78 30.52 C 32.397 32.064 35.694 31.842 38.08 29.96 C 39.884 30.664 41.928 30.343 43.43 29.12 C 44.87 29.45 49.55 30.12 49.97 24.8 Z"
        fill="#f44335"/>
    <path
        id="path_3"
        d="M 43.706 29.178 C 43.606 29.158 43.506 29.139 43.43 29.12 C 43.364 29.177 43.295 29.22 43.23 29.269 C 43.388 29.246 43.546 29.216 43.706 29.178 Z"
        fill="#c81e1e"/>
    <path
        id="path_4"
        d="M 45.2 29.334 C 43.384 31.197 41.293 32.771 39 34 C 35.947 35.85 33.239 38.219 31 41 C 31 41 24.028 50.059 15.325 55.961 C 13.9 57.871 13 59 13 59 C 24 54 34 41 34 41 C 36.239 38.219 38.947 35.85 42 34 C 48.08 30.35 49.77 28.3 49.97 24.8 C 49.665 28.659 47.123 29.362 45.2 29.334 Z"
        fill="#c81e1e"/>
    <path
        id="path_5"
        d="M 48 19 C 49.387 20.28 50.121 22.117 50 24 C 50 24.28 49.99 24.54 49.97 24.8 C 49.55 30.12 44.87 29.45 43.43 29.12 C 41.928 30.343 39.884 30.664 38.08 29.96 C 35.694 31.842 32.397 32.064 29.78 30.52 C 28.508 31.125 27.127 31.468 25.72 31.53 L 25.71 31.53 C 24.213 31.612 22.729 31.209 21.48 30.38 C 18.573 31.041 15.525 30.263 13.29 28.29 C 6.42 29.03 4 25.41 4 25.41 C 11 25.41 20 19.17 25 16.68 C 25.683 16.309 26.435 16.081 27.21 16.01 L 27.26 16.01 C 27.585 15.989 27.91 16.009 28.23 16.07 C 30.85 16.6 32.55 19.82 37 21.67 C 37.92 22.058 38.889 22.321 39.88 22.45 C 40.55 21.805 40.951 20.929 41 20 C 41.043 18.238 41.521 16.514 42.39 14.98 C 43.592 12.821 45.75 11.364 48.202 11.058 C 50.654 10.752 53.104 11.633 54.8 13.43 C 55.833 14.664 56.516 16.152 56.78 17.74 C 47.24 11.59 46.51 17.51 48 19 Z"
        fill="#5f7d95"/>
    <path
        id="path_6"
        d="M 34 21.67 C 34.92 22.058 35.889 22.321 36.88 22.45 C 37.063 22.251 37.23 22.038 37.38 21.814 C 37.252 21.766 37.127 21.723 36.998 21.67 C 32.548 19.82 30.848 16.6 28.228 16.07 C 27.909 16.009 27.583 15.989 27.258 16.01 L 27.208 16.01 C 26.771 16.045 26.341 16.138 25.929 16.288 C 28.184 17.187 29.959 19.99 34 21.67 Z"
        fill="#374957"/>
    <path
        id="path_7"
        d="M 51.8 13.43 C 52.4 14.134 52.876 14.936 53.207 15.8 C 54.451 16.344 55.647 16.993 56.78 17.74 C 56.516 16.152 55.833 14.664 54.8 13.43 C 53.331 11.789 51.2 10.896 49 11 C 48.522 11.003 48.046 11.048 47.576 11.135 C 49.212 11.374 50.709 12.187 51.8 13.43 Z"
        fill="#374957"/>
    <path
        id="path_8"
        d="M 48.684 15.257 C 44.027 13.987 43.839 17.839 45 19 C 46.387 20.28 47.121 22.117 47 24 C 47 24.28 46.99 24.54 46.97 24.8 C 46.741 27.7 45.249 28.811 43.706 29.178 C 45.386 29.507 49.574 29.821 49.97 24.8 C 49.99 24.54 50 24.28 50 24 C 50.121 22.117 49.387 20.28 48 19 C 47.51 18.443 47.302 17.692 47.435 16.963 C 47.569 16.233 48.029 15.605 48.684 15.257 Z"
        fill="#374957"/>
    <path
        id="path_16"
        d="M 42.39 14.98 C 41.521 16.514 41.043 18.238 41 20 C 40.951 20.929 40.55 21.805 39.88 22.45 C 38.889 22.321 37.92 22.058 37 21.67 C 32.55 19.82 30.85 16.6 28.23 16.07 C 27.91 16.009 27.585 15.989 27.26 16.01 L 27.21 16.01 C 26.491 15.942 25.779 15.818 25.08 15.64 C 20.85 14.56 19.57 11.78 19.18 10.18 C 16.729 9.18 14.696 7.369 13.42 5.05 C 9.35 3.12 9 1 9 1 C 15.277 2.126 21.627 2.794 28 3 C 32 3 35 3 38 9 C 39.036 11.274 40.531 13.31 42.39 14.98 Z"
        fill="#5f7d95"/>
    <path
        id="path_17"
        d="M 38 9 C 35 3 32 3 28 3 C 21.627 2.794 15.277 2.126 9 1 C 9.045 1.198 9.117 1.388 9.214 1.566 C 14.444 2.345 19.715 2.824 25 3 C 29 3 32 3 35 9 C 36.036 11.274 37.531 13.31 39.39 14.98 C 38.521 16.514 38.043 18.238 38 20 C 37.982 20.653 37.766 21.285 37.382 21.814 C 38.187 22.124 39.026 22.338 39.882 22.45 C 40.552 21.805 40.951 20.929 41 20 C 41.043 18.238 41.521 16.514 42.39 14.98 C 40.531 13.31 39.036 11.274 38 9 Z"
        fill="#374957"/>
    <path
        id="path_18"
        d="M 54.8 13.43 C 53.331 11.789 51.2 10.896 49 11 L 54 7 Z"
        fill="#ff9801"/>
    <path
        id="path_19"
        d="M 0.821 40.984 C 9.488 42.558 20.37 40.542 25.012 39.506 C 21.176 46.076 16.902 52.38 12.219 58.375 C 11.927 58.737 11.922 59.253 12.209 59.619 C 12.496 59.986 12.997 60.106 13.419 59.91 C 23.619 55.276 32.767 44.17 34.513 41.973 C 53.765 40.779 58 25.741 58 20 C 58.053 17.493 57.263 15.041 55.758 13.035 L 54.992 6.876 C 54.947 6.517 54.712 6.21 54.376 6.073 C 54.041 5.937 53.658 5.993 53.375 6.219 L 48.619 10.019 C 46.063 10.087 43.686 11.349 42.198 13.429 C 40.855 11.98 39.742 10.334 38.898 8.548 C 35.618 2 32.088 2 28 2 C 21.697 1.796 15.416 1.135 9.209 0.022 C 8.885 -0.049 8.547 0.046 8.306 0.274 C 8.066 0.503 7.955 0.836 8.009 1.163 C 8.053 1.426 8.559 3.747 12.694 5.805 C 14.002 8.038 15.973 9.81 18.332 10.874 C 19.132 13.422 21.12 15.424 23.663 16.242 C 22.725 16.742 21.683 17.329 20.595 17.942 C 15.773 20.672 9.164 24.409 4 24.409 C 3.631 24.409 3.292 24.612 3.118 24.937 C 2.944 25.262 2.963 25.657 3.168 25.964 C 3.312 26.178 5.574 29.406 11.468 29.406 C 11.942 29.406 12.446 29.379 12.968 29.334 C 14.788 30.814 17.071 31.606 19.417 31.572 C 20.031 31.566 20.644 31.515 21.25 31.42 C 21.747 31.716 22.276 31.954 22.827 32.129 C 13.191 37.578 1.027 38.991 0.892 39.006 C 0.398 39.06 0.019 39.469 0.002 39.965 C -0.015 40.462 0.334 40.895 0.823 40.984 Z M 53.5 11.1 C 52.86 10.747 52.177 10.48 51.467 10.307 L 53.229 8.9 Z M 21.039 11.942 C 23.627 12.683 26.309 13.039 29 13 C 29.552 13 30 12.552 30 12 C 30 11.448 29.552 11 29 11 C 25.776 11.095 22.569 10.505 19.591 9.268 C 18.425 8.755 17.345 8.064 16.391 7.22 C 20.162 8.249 24.038 8.846 27.944 9 C 28.496 9.031 28.969 8.608 29 8.056 C 29.031 7.504 28.608 7.031 28.056 7 C 21.875 6.654 17.1 5.694 13.848 4.146 C 12.867 3.705 11.957 3.12 11.148 2.412 C 16.728 3.28 22.356 3.811 28 4 C 31.98 4 34.382 4 37.1 9.446 C 38.108 11.591 39.481 13.545 41.158 15.22 C 40.432 16.711 40.037 18.342 40 20 C 39.976 20.5 39.793 20.978 39.477 21.366 C 38.759 21.235 38.057 21.026 37.384 20.745 C 35.577 19.941 33.913 18.848 32.456 17.51 C 32.165 17.264 31.876 17.022 31.585 16.789 C 31.865 16.591 32.022 16.262 32 15.92 C 31.98 15.655 31.854 15.408 31.651 15.235 C 31.449 15.063 31.185 14.978 30.92 15 C 30.037 15.074 29.151 15.096 28.266 15.067 L 28.259 15.067 C 27.954 15.018 27.644 14.998 27.335 15.008 C 26.658 14.95 25.986 14.836 25.328 14.667 C 23.611 14.32 22.083 13.349 21.041 11.941 Z M 15.953 28.853 C 19.287 28.021 22.492 26.738 25.479 25.04 C 25.793 24.869 25.991 24.543 26 24.186 C 26.009 23.829 25.826 23.494 25.521 23.308 C 25.216 23.122 24.835 23.113 24.521 23.284 C 14.383 28.816 8.939 27.565 6.486 26.184 C 11.604 25.323 17.277 22.116 21.586 19.684 C 23.007 18.884 24.349 18.123 25.449 17.574 C 27.949 16.325 29.026 17.232 31.17 19.038 C 32.782 20.509 34.623 21.709 36.619 22.59 C 39.419 23.845 42.621 23.843 45.419 22.584 C 45.922 22.355 46.143 21.762 45.914 21.259 C 45.685 20.756 45.092 20.535 44.589 20.764 C 43.674 21.179 42.692 21.427 41.689 21.497 C 41.89 21.023 41.996 20.515 42 20 C 42.043 18.408 42.476 16.851 43.263 15.467 C 44.306 13.592 46.178 12.325 48.307 12.053 C 50.435 11.781 52.566 12.536 54.047 14.088 C 55.375 15.766 56.067 17.861 56 20 C 56 20.181 55.435 37.464 36.391 39.784 C 38.209 37.882 40.268 36.226 42.515 34.857 C 48.815 31.075 50.787 28.779 50.981 24.708 C 50.981 24.638 50.989 24.573 50.988 24.525 C 51 24.354 51 24.183 51 24 C 51.122 21.851 50.282 19.76 48.707 18.293 C 48.382 17.848 48.307 17.269 48.507 16.756 C 48.72 16.254 49.22 16 50 16 C 50.552 16 51 15.552 51 15 C 51 14.448 50.552 14 50 14 C 48.579 13.893 47.244 14.69 46.664 15.991 C 46.15 17.248 46.394 18.689 47.293 19.707 C 48.494 20.798 49.124 22.382 49 24 C 49 24.16 48.995 24.312 48.99 24.466 C 48.99 24.549 48.982 24.626 48.973 24.721 C 48.986 25.861 48.496 26.949 47.633 27.695 C 46.967 28.137 46.179 28.361 45.38 28.336 C 45.568 28.049 45.74 27.753 45.895 27.447 C 46.142 26.953 45.941 26.352 45.447 26.105 C 44.953 25.858 44.352 26.059 44.105 26.553 C 43.778 27.236 43.326 27.851 42.772 28.367 C 42.1 28.958 41.239 29.291 40.344 29.305 C 40.866 28.769 41.352 28.2 41.8 27.6 C 42.131 27.158 42.042 26.531 41.6 26.2 C 41.158 25.869 40.531 25.958 40.2 26.4 C 39.442 27.446 38.532 28.372 37.5 29.149 C 35.99 30.346 34.02 30.798 32.139 30.381 C 33.391 29.608 34.572 28.727 35.669 27.748 C 35.937 27.511 36.058 27.149 35.987 26.799 C 35.916 26.448 35.663 26.162 35.324 26.049 C 34.985 25.935 34.611 26.011 34.343 26.248 C 32.865 27.611 31.19 28.743 29.374 29.606 C 28.227 30.152 26.982 30.465 25.713 30.527 L 25.683 30.527 C 25.37 30.536 25.057 30.524 24.746 30.491 C 27.165 29.555 29.459 28.322 31.574 26.82 C 32.024 26.505 32.136 25.885 31.823 25.433 C 31.511 24.981 30.892 24.865 30.438 25.174 C 27.719 27.203 24.607 28.643 21.3 29.4 C 19.504 29.771 17.637 29.58 15.953 28.853 Z M 26.029 32.508 C 27.301 32.42 28.549 32.12 29.722 31.62 C 32.459 33.033 35.755 32.807 38.273 31.033 C 38.903 31.206 39.552 31.3 40.205 31.313 C 41.447 31.32 42.657 30.925 43.656 30.187 C 44.203 30.288 44.757 30.34 45.313 30.342 C 45.435 30.342 45.565 30.327 45.691 30.321 C 44.35 31.35 42.946 32.293 41.485 33.143 C 38.322 35.054 35.52 37.507 33.208 40.39 C 33.122 40.502 25.601 50.19 16.625 55.881 C 20.747 50.33 24.506 44.518 27.878 38.481 C 28.069 38.13 28.033 37.699 27.786 37.385 C 27.54 37.07 27.129 36.933 26.743 37.036 C 20.886 38.496 14.891 39.338 8.858 39.548 C 14.934 38.174 20.737 35.794 26.029 32.508 Z"
        fill="#000000"/>
    <path
        id="path_20"
        d="M 0.757 11.97 L 3.296 12.605 L 1.2 15.4 C 0.869 15.842 0.958 16.469 1.4 16.8 C 1.842 17.131 2.469 17.042 2.8 16.6 L 5 13.667 L 7.2 16.6 C 7.531 17.042 8.158 17.131 8.6 16.8 C 9.042 16.469 9.131 15.842 8.8 15.4 L 6.7 12.605 L 9.239 11.97 C 9.588 11.885 9.864 11.62 9.964 11.275 C 10.063 10.93 9.97 10.558 9.72 10.301 C 9.47 10.044 9.101 9.94 8.753 10.03 L 6 10.719 L 6 8 C 6 7.448 5.552 7 5 7 C 4.448 7 4 7.448 4 8 L 4 10.719 L 1.243 10.03 C 0.709 9.9 0.17 10.226 0.037 10.759 C -0.097 11.292 0.225 11.833 0.757 11.97 Z"
        fill="#000000"/>
    <path
        id="path_21"
        d="M 47 46 C 46.448 46 46 46.448 46 47 L 46 49.719 L 43.243 49.03 C 42.895 48.94 42.526 49.044 42.276 49.301 C 42.026 49.558 41.933 49.93 42.032 50.275 C 42.132 50.62 42.408 50.885 42.757 50.97 L 45.296 51.605 L 43.196 54.405 C 42.982 54.691 42.936 55.069 43.076 55.398 C 43.217 55.726 43.522 55.955 43.876 55.998 C 44.231 56.041 44.582 55.891 44.796 55.605 L 47 52.666 L 49.2 55.6 C 49.414 55.886 49.765 56.036 50.12 55.993 C 50.474 55.95 50.779 55.721 50.92 55.393 C 51.06 55.064 51.014 54.686 50.8 54.4 L 48.7 51.6 L 51.238 50.965 C 51.592 50.885 51.875 50.62 51.978 50.272 C 52.08 49.924 51.986 49.548 51.732 49.289 C 51.478 49.03 51.104 48.929 50.754 49.025 L 48 49.719 L 48 47 C 48 46.448 47.552 46 47 46 Z"
        fill="#000000"/>
</svg>
